<svg xmlns="http://www.w3.org/2000/svg" viewBox="0 0 153.47 176.02"><defs><style>.cls-1{fill:#e10c19;}.cls-10,.cls-12,.cls-14,.cls-16,.cls-18,.cls-2,.cls-20,.cls-22,.cls-24,.cls-26,.cls-28,.cls-30,.cls-32,.cls-34,.cls-36,.cls-38,.cls-4,.cls-53,.cls-6,.cls-8,.cls-89{fill:none;stroke-width:0.02px;}.cls-2{stroke:#e10c19;}.cls-10,.cls-12,.cls-14,.cls-16,.cls-18,.cls-2,.cls-20,.cls-22,.cls-24,.cls-26,.cls-28,.cls-30,.cls-32,.cls-34,.cls-36,.cls-38,.cls-4,.cls-52,.cls-53,.cls-54,.cls-55,.cls-56,.cls-57,.cls-58,.cls-59,.cls-6,.cls-60,.cls-61,.cls-62,.cls-63,.cls-64,.cls-65,.cls-66,.cls-67,.cls-68,.cls-69,.cls-70,.cls-71,.cls-72,.cls-73,.cls-74,.cls-75,.cls-76,.cls-77,.cls-78,.cls-79,.cls-8,.cls-80,.cls-81,.cls-82,.cls-83,.cls-84,.cls-85,.cls-86,.cls-87,.cls-89{stroke-miterlimit:10;}.cls-3{fill:#6da92d;}.cls-4{stroke:#6da92d;}.cls-5{fill:#df0f1c;}.cls-6{stroke:#df0f1c;}.cls-7{fill:#c4414e;}.cls-8{stroke:#c4414e;}.cls-9{fill:#fdf9f9;}.cls-10{stroke:#fdf9f9;}.cls-11{fill:#c24754;}.cls-12{stroke:#c24754;}.cls-13{fill:#c63a46;}.cls-14{stroke:#c63a46;}.cls-15{fill:#d41f2c;}.cls-16{stroke:#d41f2c;}.cls-17{fill:#d71c28;}.cls-18{stroke:#d71c28;}.cls-19{fill:#cc3a49;}.cls-20{stroke:#cc3a49;}.cls-21{fill:#cd3543;}.cls-22{stroke:#cd3543;}.cls-23{fill:#1285d1;}.cls-24{stroke:#1285d1;}.cls-25{fill:#c26f7b;}.cls-26{stroke:#c26f7b;}.cls-27{fill:#d51f29;}.cls-28{stroke:#d51f29;}.cls-29{fill:#d2222e;}.cls-30{stroke:#d2222e;}.cls-31{fill:#1a87cd;}.cls-32{stroke:#1a87cd;}.cls-33{fill:#e56c75;}.cls-34{stroke:#e56c75;}.cls-35{fill:#d1696a;}.cls-36{stroke:#d1696a;}.cls-37{fill:#0883d4;}.cls-38{stroke:#0883d4;}.cls-39{fill:#4597c6;}.cls-40{fill:#0582d4;}.cls-41{fill:#0683d4;}.cls-42{fill:#79b5da;}.cls-43{fill:#69b1de;}.cls-44{fill:#0783d3;}.cls-45{fill:#88c3e3;}.cls-46{fill:#9dddfe;}.cls-47{fill:#75c1ec;}.cls-48{fill:#f4fcfc;}.cls-49{fill:#90d7fd;}.cls-50{fill:#77b8df;}.cls-51{fill:#4191c7;}.cls-52{fill:#191919;}.cls-52,.cls-53,.cls-54,.cls-55,.cls-56,.cls-57,.cls-58,.cls-59,.cls-60,.cls-61,.cls-62,.cls-63,.cls-64,.cls-65,.cls-66,.cls-67,.cls-68,.cls-69,.cls-70,.cls-71,.cls-72,.cls-73,.cls-74,.cls-75,.cls-76,.cls-77,.cls-78,.cls-79,.cls-80,.cls-81,.cls-82,.cls-83,.cls-84,.cls-85,.cls-86,.cls-87{stroke:#fff;}.cls-54{fill:#7b7b7b;}.cls-55{fill:#161616;}.cls-56{fill:#626262;}.cls-57{fill:#141414;}.cls-58{fill:#2c2c2c;}.cls-59{fill:#424242;}.cls-60{fill:#0f0f0f;}.cls-61{fill:#131313;}.cls-62{fill:#f9f9f9;}.cls-63{fill:#898989;}.cls-64{fill:#fbfbfb;}.cls-65{fill:#181818;}.cls-66{fill:#949494;}.cls-67{fill:#171717;}.cls-68{fill:#151515;}.cls-69{fill:#717171;}.cls-70{fill:#1a1a1a;}.cls-71{fill:#7a7a7a;}.cls-72{fill:#121212;}.cls-73{fill:#1c1c1c;}.cls-74,.cls-88{fill:#838383;}.cls-75{fill:#1e1e1e;}.cls-76{fill:#797979;}.cls-77{fill:#0d0d0d;}.cls-78{fill:#040404;}.cls-79{fill:#eee;}.cls-80{fill:#ededed;}.cls-81{fill:#848484;}.cls-82{fill:#909090;}.cls-83{fill:#888;}.cls-84{fill:#ececec;}.cls-85{fill:#e9e9e9;}.cls-86{fill:#f0f0f0;}.cls-87{fill:#f2f2f2;}.cls-89{stroke:#171717;}</style></defs><g id="Layer_2" data-name="Layer 2"><g id="Layer_1-2" data-name="Layer 1"><path class="cls-1" d="M67.22,0h7.31A75.91,75.91,0,0,1,95.7,4.58a67.21,67.21,0,0,1,27.94,20.28l-.4.19A56.26,56.26,0,0,0,78.32,11.46c-20.67,2.37-39.06,17.27-44.9,36.29a97.29,97.29,0,0,0,15,6.85c.51.4.06.43-.41.41-5.49-.82-10-4.23-15-6.43-.53,1.65-1.25,3.61-1.08,5.3,3.92,1.53,7.86,3.41,12.15,3.7,3.26.32,7,.57,9.15,3.28a5,5,0,0,1-.53.37c-2.64-2-6.18-2.3-9.42-2.71-4-.86-7.88-2.42-11.89-3.33a64.76,64.76,0,0,0-.56,11.21A28.56,28.56,0,0,1,42.39,73c4.91,4.78,4.87,12.63,10.77,16.65,4.19,2.54,9.45,1.38,14.12,1.6,5.38-.06,10.31-2.42,15-4.62,2.35-1.3,5.42-1.7,7.21-3.8.17-.29.32-.58.48-.85,1.81,1.34-.61,3.21-2,3.7-5.46,2.58-10.67,6.07-16.82,6.9a30.63,30.63,0,0,1-3.32.36c-3.35,0-6.76-.24-10.12,0-3.22,0-7.13-.11-9.08-3-3.22-3.95-4.58-8.93-7.53-13-2-2.81-5.45-4.11-8.68-5.12-.27,0-1-.35-.81.15,2.54,15.62,13.18,29.74,27.71,37.29a57.43,57.43,0,0,0,65-8.4c-11.34,15.06-30,24.66-49.42,25.71-2.69-.11-5.4-.07-8.1,0-22-1.14-42.88-13.52-53.59-31.89a60.86,60.86,0,0,1-3-57A64.08,64.08,0,0,1,30.92,12.77,69.64,69.64,0,0,1,67.22,0Z"/><path class="cls-2" d="M67.22,0h7.31A75.91,75.91,0,0,1,95.7,4.58a67.21,67.21,0,0,1,27.94,20.28l-.4.19A56.26,56.26,0,0,0,78.32,11.46c-20.67,2.37-39.06,17.27-44.9,36.29a97.29,97.29,0,0,0,15,6.85c.51.4.06.43-.41.41-5.49-.82-10-4.23-15-6.43-.53,1.65-1.25,3.61-1.08,5.3,3.92,1.53,7.86,3.41,12.15,3.7,3.26.32,7,.57,9.15,3.28a5,5,0,0,1-.53.37c-2.64-2-6.18-2.3-9.42-2.71-4-.86-7.88-2.42-11.89-3.33a64.76,64.76,0,0,0-.56,11.21A28.56,28.56,0,0,1,42.39,73c4.91,4.78,4.87,12.63,10.77,16.65,4.19,2.54,9.45,1.38,14.12,1.6,5.38-.06,10.31-2.42,15-4.62,2.35-1.3,5.42-1.7,7.21-3.8.17-.29.32-.58.48-.85,1.81,1.34-.61,3.21-2,3.7-5.46,2.58-10.67,6.07-16.82,6.9a30.63,30.63,0,0,1-3.32.36c-3.35,0-6.76-.24-10.12,0-3.22,0-7.13-.11-9.08-3-3.22-3.95-4.58-8.93-7.53-13-2-2.81-5.45-4.11-8.68-5.12-.27,0-1-.35-.81.15,2.54,15.62,13.18,29.74,27.71,37.29a57.43,57.43,0,0,0,65-8.4c-11.34,15.06-30,24.66-49.42,25.71-2.69-.11-5.4-.07-8.1,0-22-1.14-42.88-13.52-53.59-31.89a60.86,60.86,0,0,1-3-57A64.08,64.08,0,0,1,30.92,12.77,69.64,69.64,0,0,1,67.22,0Z"/><path class="cls-1" d="M123.64,24.86a10.91,10.91,0,0,1,1.1,1.5,5.37,5.37,0,0,1-1.5-1.31Z"/><path class="cls-2" d="M123.64,24.86a10.91,10.91,0,0,1,1.1,1.5,5.37,5.37,0,0,1-1.5-1.31Z"/><path class="cls-3" d="M115.83,40.57a8.61,8.61,0,0,1,12,1.84c3,3.51,4.51,7.86,5.85,12.13-.25.47.61,2.1-.44,1.86a4.33,4.33,0,0,1-1-1.56c-.5-3.24-2.07-6.23-3.57-9.11-1.39-2.27-3.27-4.56-6.08-5.2a6.49,6.49,0,0,0-7.61,3.29c-3.34,6.67-3.14,14.41-2.92,21.56.46,2.7,3.48,3,5.36,4.45,1.77,1.21,3.44,3,3.25,5.21a18,18,0,0,1-2.52,9.25c-1.75-4.25-5.76-7.79-5.79-12.65-.09-1.48.85-3.29-.54-4.46.09,10.17.54,20.31.82,30.48-.17.64.7.27,1.12.27a40.15,40.15,0,0,0,12.09-3.78c-.72,5.37-7,8.4-12.21,7.65-6.39-.73-12.4-3.39-18.87-3.81-3.82-.2-8-.7-11.54,1,2.13-2.36,5.87-2.39,8.87-2.42,5.26-.19,10.29,1.77,15.53,1.73,1-.17,2.57.56,3.24-.38.52-8.67-.5-17.36-.57-26V60.22c-.17-1.56.29-3.1.15-4.65-2.1,2.5-.27,5.8-1.72,8.59-1.68,3.87-5.06,6.8-7.24,10.42-1.17-3.56-1.89-7.48-1-11.16,1-3.07,4.4-4.41,7.33-5.43C112.74,53.2,110.13,45,115.83,40.57Z"/><path class="cls-4" d="M115.83,40.57a8.61,8.61,0,0,1,12,1.84c3,3.51,4.51,7.86,5.85,12.13-.25.47.61,2.1-.44,1.86a4.33,4.33,0,0,1-1-1.56c-.5-3.24-2.07-6.23-3.57-9.11-1.39-2.27-3.27-4.56-6.08-5.2a6.49,6.49,0,0,0-7.61,3.29c-3.34,6.67-3.14,14.41-2.92,21.56.46,2.7,3.48,3,5.36,4.45,1.77,1.21,3.44,3,3.25,5.21a18,18,0,0,1-2.52,9.25c-1.75-4.25-5.76-7.79-5.79-12.65-.09-1.48.85-3.29-.54-4.46.09,10.17.54,20.31.82,30.48-.17.64.7.27,1.12.27a40.15,40.15,0,0,0,12.09-3.78c-.72,5.37-7,8.4-12.21,7.65-6.39-.73-12.4-3.39-18.87-3.81-3.82-.2-8-.7-11.54,1,2.13-2.36,5.87-2.39,8.87-2.42,5.26-.19,10.29,1.77,15.53,1.73,1-.17,2.57.56,3.24-.38.52-8.67-.5-17.36-.57-26V60.22c-.17-1.56.29-3.1.15-4.65-2.1,2.5-.27,5.8-1.72,8.59-1.68,3.87-5.06,6.8-7.24,10.42-1.17-3.56-1.89-7.48-1-11.16,1-3.07,4.4-4.41,7.33-5.43C112.74,53.2,110.13,45,115.83,40.57Z"/><path class="cls-5" d="M126.35,44.55c0-.34.61-.35.63,0a40.78,40.78,0,0,0,5.34,10.29,4.33,4.33,0,0,0,1,1.56c1.05.24.19-1.39.44-1.86.58-3,3.62-4.75,6.56-5.29,1.18-.19,2.75-.53,3.64.49a19.4,19.4,0,0,0-3.49,7.93c.05,1.39-1.39,2.17-1.69,3.35,3.14-.45,5.78,2.1,7.92,3.93,1.93,2.07,4.61,4.18,5,7.08a25.52,25.52,0,0,0-11.21-1.9c-1,.05-2.54-1.89-3-1.16,3.46,5.16,1,12.09-3.14,16.14-.48.62-2.09.71-1.55-.51a36.58,36.58,0,0,0-1.39-12.22,7.32,7.32,0,0,1-.08-3.54c-1.86,1.28-4.33.94-6.28,0-3-1.29-6.5-2.91-7.8-5.92,3.46.38,6.65-.94,9.55-2.54a4.09,4.09,0,0,1,2.54.1,10.89,10.89,0,0,1-3.54-7.61C125.56,50.12,125.13,47.16,126.35,44.55Z"/><path class="cls-6" d="M126.35,44.55c0-.34.61-.35.63,0a40.78,40.78,0,0,0,5.34,10.29,4.33,4.33,0,0,0,1,1.56c1.05.24.19-1.39.44-1.86.58-3,3.62-4.75,6.56-5.29,1.18-.19,2.75-.53,3.64.49a19.4,19.4,0,0,0-3.49,7.93c.05,1.39-1.39,2.17-1.69,3.35,3.14-.45,5.78,2.1,7.92,3.93,1.93,2.07,4.61,4.18,5,7.08a25.52,25.52,0,0,0-11.21-1.9c-1,.05-2.54-1.89-3-1.16,3.46,5.16,1,12.09-3.14,16.14-.48.62-2.09.71-1.55-.51a36.58,36.58,0,0,0-1.39-12.22,7.32,7.32,0,0,1-.08-3.54c-1.86,1.28-4.33.94-6.28,0-3-1.29-6.5-2.91-7.8-5.92,3.46.38,6.65-.94,9.55-2.54a4.09,4.09,0,0,1,2.54.1,10.89,10.89,0,0,1-3.54-7.61C125.56,50.12,125.13,47.16,126.35,44.55Z"/><path class="cls-7" d="M48.47,54.6c4.82,1.31,9.83,1.82,14.76,2.61,2.65.59,5.77.72,7.78,2.69-7.33-2.64-15.33-3.21-23-4.89C48.53,55,49,55,48.47,54.6Z"/><path class="cls-8" d="M48.47,54.6c4.82,1.31,9.83,1.82,14.76,2.61,2.65.59,5.77.72,7.78,2.69-7.33-2.64-15.33-3.21-23-4.89C48.53,55,49,55,48.47,54.6Z"/><path class="cls-9" d="M132.32,58.22c4.28-.32,6.93,4.9,5.8,8.39a3,3,0,0,1-3.93,2c-3.77-1.44-5.67-6.55-3.24-9.77A4,4,0,0,1,132.32,58.22Z"/><path class="cls-10" d="M132.32,58.22c4.28-.32,6.93,4.9,5.8,8.39a3,3,0,0,1-3.93,2c-3.77-1.44-5.67-6.55-3.24-9.77A4,4,0,0,1,132.32,58.22Z"/><path class="cls-3" d="M110.38,71.85a77.84,77.84,0,0,1,0-11.63Z"/><path class="cls-4" d="M110.38,71.85a77.84,77.84,0,0,1,0-11.63Z"/><path class="cls-11" d="M71.94,60.53c3.63,2,7.82,4.17,9.39,8.14.93,1.84,1.82,3.71,2.64,5.6a1.07,1.07,0,0,1-.47,1.25c0-.08,0-.24-.07-.32.14-1.44-1-2.65-1.43-4-1.19-3-3-6.08-6-7.79C74.65,62.47,73,61.74,71.94,60.53Z"/><path class="cls-12" d="M71.94,60.53c3.63,2,7.82,4.17,9.39,8.14.93,1.84,1.82,3.71,2.64,5.6a1.07,1.07,0,0,1-.47,1.25c0-.08,0-.24-.07-.32.14-1.44-1-2.65-1.43-4-1.19-3-3-6.08-6-7.79C74.65,62.47,73,61.74,71.94,60.53Z"/><path class="cls-13" d="M53.32,60.86a27.15,27.15,0,0,1,3.81,6.2c1.32,2.32,1.64,5.33,4.18,6.85,2.4,2.18,5.67,4.17,6.06,7.58-.14.13-.27.27-.39.4,0-4.94-6.61-6.15-8.55-10.18-1.31-3.71-2.8-7.57-5.64-10.48A5,5,0,0,0,53.32,60.86Z"/><path class="cls-14" d="M53.32,60.86a27.15,27.15,0,0,1,3.81,6.2c1.32,2.32,1.64,5.33,4.18,6.85,2.4,2.18,5.67,4.17,6.06,7.58-.14.13-.27.27-.39.4,0-4.94-6.61-6.15-8.55-10.18-1.31-3.71-2.8-7.57-5.64-10.48A5,5,0,0,0,53.32,60.86Z"/><path class="cls-15" d="M71.79,65.13c1.64,2.05,3.46,4.05,4.9,6.2.33,3,3.9,4.65,6.74,3.87,0,.08,0,.24.07.32a2.43,2.43,0,0,1-1.54.84,2.56,2.56,0,0,0-.48.1,5.33,5.33,0,0,1-5.78-3.67C75.18,69.89,72.38,68,71.79,65.13Z"/><path class="cls-16" d="M71.79,65.13c1.64,2.05,3.46,4.05,4.9,6.2.33,3,3.9,4.65,6.74,3.87,0,.08,0,.24.07.32a2.43,2.43,0,0,1-1.54.84,2.56,2.56,0,0,0-.48.1,5.33,5.33,0,0,1-5.78-3.67C75.18,69.89,72.38,68,71.79,65.13Z"/><path class="cls-17" d="M45.41,71.64a16.83,16.83,0,0,1,2.25,1.58c2.17,2,5.3,2.28,7.84,3.68,1.7,2,2.67,4.76,5.29,5.93,2,.89,5,1.26,6.19-.94.12-.13.25-.27.39-.4,1,2.83-2.32,4.65-4.81,4.14-3-.54-4.58-3.23-6.33-5.29C53.06,77,48.2,75.39,45.41,71.64Z"/><path class="cls-18" d="M45.41,71.64a16.83,16.83,0,0,1,2.25,1.58c2.17,2,5.3,2.28,7.84,3.68,1.7,2,2.67,4.76,5.29,5.93,2,.89,5,1.26,6.19-.94.12-.13.25-.27.39-.4,1,2.83-2.32,4.65-4.81,4.14-3-.54-4.58-3.23-6.33-5.29C53.06,77,48.2,75.39,45.41,71.64Z"/><path class="cls-19" d="M73.88,74c2.07-.45,3.44,1.68,3.94,3.31-.95-1.15-2-3.19-3.89-2.47-1.47,1-1.24,3-1.12,4.54C71.84,77.7,71.64,74.75,73.88,74Z"/><path class="cls-20" d="M73.88,74c2.07-.45,3.44,1.68,3.94,3.31-.95-1.15-2-3.19-3.89-2.47-1.47,1-1.24,3-1.12,4.54C71.84,77.7,71.64,74.75,73.88,74Z"/><path class="cls-21" d="M69.2,74.61a2.57,2.57,0,0,1,2.79.92c-1.25-.35-3.19-.56-3.67,1a11.83,11.83,0,0,0,.17,5.09C67.58,79.53,66.08,75.6,69.2,74.61Z"/><path class="cls-22" d="M69.2,74.61a2.57,2.57,0,0,1,2.79.92c-1.25-.35-3.19-.56-3.67,1a11.83,11.83,0,0,0,.17,5.09C67.58,79.53,66.08,75.6,69.2,74.61Z"/><path class="cls-23" d="M87.67,76.65c2-.37,4.56-1.1,6.23.41,1.74,1.75,1.1,5.11,4,5.93s6.14,1.73,8.38,4c3,2.81,2.89,7.27,2.22,10.93-.32-5.61-4.67-10.51-10.2-12.23-2.82-1-5.13-3.38-5.06-6.38C93.2,76.6,89.71,76.73,87.67,76.65Z"/><path class="cls-24" d="M87.67,76.65c2-.37,4.56-1.1,6.23.41,1.74,1.75,1.1,5.11,4,5.93s6.14,1.73,8.38,4c3,2.81,2.89,7.27,2.22,10.93-.32-5.61-4.67-10.51-10.2-12.23-2.82-1-5.13-3.38-5.06-6.38C93.2,76.6,89.71,76.73,87.67,76.65Z"/><path class="cls-25" d="M81.48,76.46a2.56,2.56,0,0,1,.48-.1c.29,0,.84.27.22.29-2.69.19-3.74,3.23-6.36,3.33-2.12.28-4,1.37-5.86,2.24a8.93,8.93,0,0,1,5.29-2.45C77.82,79.72,79.09,77.14,81.48,76.46Z"/><path class="cls-26" d="M81.48,76.46a2.56,2.56,0,0,1,.48-.1c.29,0,.84.27.22.29-2.69.19-3.74,3.23-6.36,3.33-2.12.28-4,1.37-5.86,2.24a8.93,8.93,0,0,1,5.29-2.45C77.82,79.72,79.09,77.14,81.48,76.46Z"/><path class="cls-27" d="M83.28,76.47c1.94-.83,5.51,2.68,2.56,3.51-4.93,1.72-8.64,5.4-13.25,7.59a100.5,100.5,0,0,1-17.34.8c5.57-1,11.45-1,17-2.05,4.18-1.95,7.58-5.17,11.84-7C85.4,78.62,84.62,76.65,83.28,76.47Z"/><path class="cls-28" d="M83.28,76.47c1.94-.83,5.51,2.68,2.56,3.51-4.93,1.72-8.64,5.4-13.25,7.59a100.5,100.5,0,0,1-17.34.8c5.57-1,11.45-1,17-2.05,4.18-1.95,7.58-5.17,11.84-7C85.4,78.62,84.62,76.65,83.28,76.47Z"/><path class="cls-29" d="M87.11,77.52a3.42,3.42,0,0,1,4.42,2c.22,1.18-2.91,1.61-1.54,2.47-.16.27-.31.56-.48.85,0-.4,0-.88-.33-1.13C84.92,84,80.29,85.57,76,87.78,71.33,90.36,65.71,90,60.56,90c3.22-.67,6.57-.54,9.83-1.14,4.07-.4,6.93-3.6,10.6-5,3.06-1.64,6.65-2.17,9.51-4.17C90.93,77.86,88.34,77.68,87.11,77.52Z"/><path class="cls-30" d="M87.11,77.52a3.42,3.42,0,0,1,4.42,2c.22,1.18-2.91,1.61-1.54,2.47-.16.27-.31.56-.48.85,0-.4,0-.88-.33-1.13C84.92,84,80.29,85.57,76,87.78,71.33,90.36,65.71,90,60.56,90c3.22-.67,6.57-.54,9.83-1.14,4.07-.4,6.93-3.6,10.6-5,3.06-1.64,6.65-2.17,9.51-4.17C90.93,77.86,88.34,77.68,87.11,77.52Z"/><path class="cls-31" d="M93.47,83.64c2.32-.14,2.28,2.58,3.25,4,1.92,1.25,4.41,2,5.6,4a4.81,4.81,0,0,1-.07,4.14c0-2.7-2.32-4.85-4.89-5.63-2.17-.66-2.84-3-2.67-4.93C95,84.32,94.05,84,93.47,83.64Z"/><path class="cls-32" d="M93.47,83.64c2.32-.14,2.28,2.58,3.25,4,1.92,1.25,4.41,2,5.6,4a4.81,4.81,0,0,1-.07,4.14c0-2.7-2.32-4.85-4.89-5.63-2.17-.66-2.84-3-2.67-4.93C95,84.32,94.05,84,93.47,83.64Z"/><path class="cls-33" d="M57.73,93c3.36-.29,6.77-.08,10.12,0C64.5,93.18,61.11,93,57.73,93Z"/><path class="cls-34" d="M57.73,93c3.36-.29,6.77-.08,10.12,0C64.5,93.18,61.11,93,57.73,93Z"/><path class="cls-35" d="M66.77,126.52c2.7,0,5.41-.08,8.1,0A57.62,57.62,0,0,1,66.77,126.52Z"/><path class="cls-36" d="M66.77,126.52c2.7,0,5.41-.08,8.1,0A57.62,57.62,0,0,1,66.77,126.52Z"/><path class="cls-37" d="M4.05,140.54c4.26-2.42,9.47-1.18,14.14-1.45a33.81,33.81,0,0,1,0,3.63c-3.1.15-6.24-.19-9.33.16-2.46.45-3.46,3-3.64,5.15,0,2.69-.65,6.59,2.5,8,3.31,1.17,7,.21,10.47.54a33.63,33.63,0,0,1,0,3.62c-4.12-.11-8.36.49-12.4-.52A9.13,9.13,0,0,1,0,151.9v-4C.48,145.18,1.38,142.09,4.05,140.54Z"/><path class="cls-38" d="M4.05,140.54c4.26-2.42,9.47-1.18,14.14-1.45a33.81,33.81,0,0,1,0,3.63c-3.1.15-6.24-.19-9.33.16-2.46.45-3.46,3-3.64,5.15,0,2.69-.65,6.59,2.5,8,3.31,1.17,7,.21,10.47.54a33.63,33.63,0,0,1,0,3.62c-4.12-.11-8.36.49-12.4-.52A9.13,9.13,0,0,1,0,151.9v-4C.48,145.18,1.38,142.09,4.05,140.54Z"/><path class="cls-37" d="M28.11,139.09c1.62,0,3.26-.05,4.89,0,3.16,7,6.33,14.08,9.44,21.14-1.72,0-3.43,0-5.15,0-.78-1.64-1.36-3.38-2.1-5-3.21,0-6.39-.07-9.58,0-.69,1.64-1.29,3.33-2,5a33.35,33.35,0,0,1-4.91.1C21.75,153.17,24.87,146.08,28.11,139.09Z"/><path class="cls-38" d="M28.11,139.09c1.62,0,3.26-.05,4.89,0,3.16,7,6.33,14.08,9.44,21.14-1.72,0-3.43,0-5.15,0-.78-1.64-1.36-3.38-2.1-5-3.21,0-6.39-.07-9.58,0-.69,1.64-1.29,3.33-2,5a33.35,33.35,0,0,1-4.91.1C21.75,153.17,24.87,146.08,28.11,139.09Z"/><path class="cls-39" d="M43.92,139.39c-.11-.36.24-.33.5-.33-.8,6.34-.08,13-.33,19.45-.78,2.71,2.87,1.27,4.49,1.58.07-2.55,0-5.08,0-7.63.37,2.29.1,5.24.15,7.79-1.6,0-3.21.06-4.81,0C43.91,153.3,43.94,146.34,43.92,139.39Z"/><path class="cls-38" d="M43.92,139.39c-.11-.36.24-.33.5-.33-.8,6.34-.08,13-.33,19.45-.78,2.71,2.87,1.27,4.49,1.58.07-2.55,0-5.08,0-7.63.37,2.29.1,5.24.15,7.79-1.6,0-3.21.06-4.81,0C43.91,153.3,43.94,146.34,43.92,139.39Z"/><path class="cls-40" d="M44.42,139.06c1.83,0,3.66,0,5.48,0,2.86,4.92,5.83,9.8,8.73,14.69.17.38.61,1.23.3-.35,0-3.68.17-7.39-.08-11.06a24,24,0,0,1-.05-3.28c1.55,0,3.11-.06,4.64,0,0,7.06,0,14.12,0,21.16-1.77,0-3.52.06-5.29,0-3.29-5.11-6.14-10.58-9.53-15.63,0,2.62,0,5.24,0,7.86s0,5.08,0,7.63c-1.62-.31-5.27,1.13-4.49-1.58C44.34,152.06,43.62,145.4,44.42,139.06Z"/><path class="cls-38" d="M44.42,139.06c1.83,0,3.66,0,5.48,0,2.86,4.92,5.83,9.8,8.73,14.69.17.38.61,1.23.3-.35,0-3.68.17-7.39-.08-11.06a24,24,0,0,1-.05-3.28c1.55,0,3.11-.06,4.64,0,0,7.06,0,14.12,0,21.16-1.77,0-3.52.06-5.29,0-3.29-5.11-6.14-10.58-9.53-15.63,0,2.62,0,5.24,0,7.86s0,5.08,0,7.63c-1.62-.31-5.27,1.13-4.49-1.58C44.34,152.06,43.62,145.4,44.42,139.06Z"/><path class="cls-41" d="M70.92,139.51c5.18-.93,10.51-.23,15.75-.42,0,1.21,0,2.42,0,3.63-4.12.15-8.29-.17-12.4.11-2.92,0-3.69,4.63-.65,5,2.9.26,5.82.05,8.73.12,2.17.12,4.62,1.16,5.16,3.36,1.69,3.95-1,9.13-5.83,8.74-4.62,0-9.23.05-13.84,0,0-1.17-.07-2.33,0-3.48,4.24-.12,8.5.16,12.72-.12,1.59-.21,2.94-1.53,2.37-3.14-.65-2.3-3.72-1.61-5.59-1.69-3.26,0-7.63.48-9.74-2.52C65.81,145.91,66.62,140.43,70.92,139.51Z"/><path class="cls-38" d="M70.92,139.51c5.18-.93,10.51-.23,15.75-.42,0,1.21,0,2.42,0,3.63-4.12.15-8.29-.17-12.4.11-2.92,0-3.69,4.63-.65,5,2.9.26,5.82.05,8.73.12,2.17.12,4.62,1.16,5.16,3.36,1.69,3.95-1,9.13-5.83,8.74-4.62,0-9.23.05-13.84,0,0-1.17-.07-2.33,0-3.48,4.24-.12,8.5.16,12.72-.12,1.59-.21,2.94-1.53,2.37-3.14-.65-2.3-3.72-1.61-5.59-1.69-3.26,0-7.63.48-9.74-2.52C65.81,145.91,66.62,140.43,70.92,139.51Z"/><path class="cls-42" d="M86.67,139.09a13.27,13.27,0,0,1,.15,3.79c-4.19,0-8.38.11-12.57,0,4.11-.28,8.28,0,12.4-.11C86.72,141.51,86.67,140.3,86.67,139.09Z"/><path class="cls-38" d="M86.67,139.09a13.27,13.27,0,0,1,.15,3.79c-4.19,0-8.38.11-12.57,0,4.11-.28,8.28,0,12.4-.11C86.72,141.51,86.67,140.3,86.67,139.09Z"/><path class="cls-43" d="M91.35,153.73a125.45,125.45,0,0,1,0-14.64Z"/><path class="cls-38" d="M91.35,153.73a125.45,125.45,0,0,1,0-14.64Z"/><path class="cls-44" d="M91.35,139.09c1.5,0,3,0,4.49,0,.2,4.86-.3,9.78.21,14.62.41,4.15,7.29,4.51,9.26,1.41,1.33-5.21.16-10.72.58-16,1.55,0,3.11-.06,4.64,0-.3,5.7.69,11.55-.52,17.17-2.53,4.88-9.73,4.94-14.49,3.36a5.91,5.91,0,0,1-4.17-5.89Z"/><path class="cls-38" d="M91.35,139.09c1.5,0,3,0,4.49,0,.2,4.86-.3,9.78.21,14.62.41,4.15,7.29,4.51,9.26,1.41,1.33-5.21.16-10.72.58-16,1.55,0,3.11-.06,4.64,0-.3,5.7.69,11.55-.52,17.17-2.53,4.88-9.73,4.94-14.49,3.36a5.91,5.91,0,0,1-4.17-5.89Z"/><path class="cls-44" d="M111.53,139.08c1.76,0,3.54-.1,5.3,0,1.78,2.68,3.55,5.36,5.41,8,1.88-2.63,3.64-5.39,5.56-8q2.65,0,5.31,0c-2.64,3.84-5.41,7.68-8.23,11.42-.76,3,0,6.42-.34,9.58-1.48,0-3,.06-4.46,0-.38-3.14.59-6.61-.3-9.59Q115.55,144.86,111.53,139.08Z"/><path class="cls-38" d="M111.53,139.08c1.76,0,3.54-.1,5.3,0,1.78,2.68,3.55,5.36,5.41,8,1.88-2.63,3.64-5.39,5.56-8q2.65,0,5.31,0c-2.64,3.84-5.41,7.68-8.23,11.42-.76,3,0,6.42-.34,9.58-1.48,0-3,.06-4.46,0-.38-3.14.59-6.61-.3-9.59Q115.55,144.86,111.53,139.08Z"/><path class="cls-45" d="M134.21,153.46a143.41,143.41,0,0,1,0-14.38C134.23,143.87,134.33,148.67,134.21,153.46Z"/><path class="cls-38" d="M134.21,153.46a143.41,143.41,0,0,1,0-14.38C134.23,143.87,134.33,148.67,134.21,153.46Z"/><path class="cls-41" d="M134.26,139.08c1.5,0,3,0,4.51,0,.08,4.63-.15,9.28.1,13.9-.4,5.4,9.77,5.58,9.85.35.2-4.73,0-9.49.08-14.24,1.56-.06,3.11,0,4.66,0v15c-.11,3.09-2.75,5.45-5.82,6-3.44.57-7.22.6-10.37-1a6.16,6.16,0,0,1-3.06-5.67C134.33,148.67,134.23,143.87,134.26,139.08Z"/><path class="cls-38" d="M134.26,139.08c1.5,0,3,0,4.51,0,.08,4.63-.15,9.28.1,13.9-.4,5.4,9.77,5.58,9.85.35.2-4.73,0-9.49.08-14.24,1.56-.06,3.11,0,4.66,0v15c-.11,3.09-2.75,5.45-5.82,6-3.44.57-7.22.6-10.37-1a6.16,6.16,0,0,1-3.06-5.67C134.33,148.67,134.23,143.87,134.26,139.08Z"/><path class="cls-46" d="M138.77,139.08c.38,4.34.12,9.31.1,13.9C138.62,148.36,138.85,143.71,138.77,139.08Z"/><path class="cls-38" d="M138.77,139.08c.38,4.34.12,9.31.1,13.9C138.62,148.36,138.85,143.71,138.77,139.08Z"/><path class="cls-47" d="M58.85,142.37c.25,3.67,0,7.38.08,11.06.31,1.58-.13.73-.3.35C59,150,58.6,146.16,58.85,142.37Z"/><path class="cls-38" d="M58.85,142.37c.25,3.67,0,7.38.08,11.06.31,1.58-.13.73-.3.35C59,150,58.6,146.16,58.85,142.37Z"/><path class="cls-48" d="M30.3,143.36c1.17,2.63,2.29,5.29,3.29,8-2.12,0-4.26,0-6.38,0C28.08,148.63,29.31,146,30.3,143.36Z"/><path class="cls-38" d="M30.3,143.36c1.17,2.63,2.29,5.29,3.29,8-2.12,0-4.26,0-6.38,0C28.08,148.63,29.31,146,30.3,143.36Z"/><path class="cls-49" d="M73.6,147.88c2.83,0,6.16-.27,8.73.12C79.42,147.93,76.5,148.14,73.6,147.88Z"/><path class="cls-38" d="M73.6,147.88c2.83,0,6.16-.27,8.73.12C79.42,147.93,76.5,148.14,73.6,147.88Z"/><path class="cls-50" d="M119.78,150.5c.89,3-.08,6.45.3,9.59,1.49.06,3,0,4.46,0,.3-3.16-.42-6.57.34-9.58-.3,3.24,0,6.5-.15,9.74-1.61,0-3.23.06-4.81,0C119.77,157,120.13,153.73,119.78,150.5Z"/><path class="cls-38" d="M119.78,150.5c.89,3-.08,6.45.3,9.59,1.49.06,3,0,4.46,0,.3-3.16-.42-6.57.34-9.58-.3,3.24,0,6.5-.15,9.74-1.61,0-3.23.06-4.81,0C119.77,157,120.13,153.73,119.78,150.5Z"/><path class="cls-51" d="M67.65,156.46c4.29,0,8.6-.07,12.89,0-4.22.28-8.48,0-12.72.12-.07,1.15,0,2.31,0,3.48,4.61.06,9.22,0,13.84,0-4.34.35-9.4.1-14,.15C67.63,159,67.58,157.71,67.65,156.46Z"/><path class="cls-38" d="M67.65,156.46c4.29,0,8.6-.07,12.89,0-4.22.28-8.48,0-12.72.12-.07,1.15,0,2.31,0,3.48,4.61.06,9.22,0,13.84,0-4.34.35-9.4.1-14,.15C67.63,159,67.58,157.71,67.65,156.46Z"/><path class="cls-52" d="M1.64,166.49c1.64-.46,1.84,1.88,2.69,2.47,1-.68,1-2.79,2.54-2.47-.55,1.77-2.77,3-2.19,5.08-.5,1.26-1.25-.59-.85-1.27C3.85,168.79,2.15,167.86,1.64,166.49Z"/><path class="cls-53" d="M1.64,166.49c1.64-.46,1.84,1.88,2.69,2.47,1-.68,1-2.79,2.54-2.47-.55,1.77-2.77,3-2.19,5.08-.5,1.26-1.25-.59-.85-1.27C3.85,168.79,2.15,167.86,1.64,166.49Z"/><path class="cls-54" d="M19.75,166.6c1.41-.28.85,4.07.63,5.29C19.76,170.47,21.51,167.06,19.75,166.6Z"/><path class="cls-53" d="M19.75,166.6c1.41-.28.85,4.07.63,5.29C19.76,170.47,21.51,167.06,19.75,166.6Z"/><path class="cls-55" d="M31.92,166.48c1.75.38.47,3.74.8,5.41C31,171.51,32.25,168.15,31.92,166.48Z"/><path class="cls-53" d="M31.92,166.48c1.75.38.47,3.74.8,5.41C31,171.51,32.25,168.15,31.92,166.48Z"/><path class="cls-56" d="M71.66,166.49c1,.13,2.44-.33,3.17.14-1,0-2,0-3,0,0,1.74,0,3.47,0,5.22A28.54,28.54,0,0,1,71.66,166.49Z"/><path class="cls-53" d="M71.66,166.49c1,.13,2.44-.33,3.17.14-1,0-2,0-3,0,0,1.74,0,3.47,0,5.22A28.54,28.54,0,0,1,71.66,166.49Z"/><path class="cls-57" d="M121.62,166.49c1.44,0,3.79-.45,4.46,1.26,1,1.53.12,4.48-2.17,4.14C120.23,173.1,121.34,168.53,121.62,166.49Z"/><path class="cls-53" d="M121.62,166.49c1.44,0,3.79-.45,4.46,1.26,1,1.53.12,4.48-2.17,4.14C120.23,173.1,121.34,168.53,121.62,166.49Z"/><path class="cls-58" d="M146.77,166.46a2.4,2.4,0,0,0,2.35,0C149.24,167.91,146.77,167.89,146.77,166.46Z"/><path class="cls-53" d="M146.77,166.46a2.4,2.4,0,0,0,2.35,0C149.24,167.91,146.77,167.89,146.77,166.46Z"/><path class="cls-59" d="M151.34,166.49c1.12-.81,1.1,1.13.29,1C151.06,167.56,150.91,166.7,151.34,166.49Z"/><path class="cls-53" d="M151.34,166.49c1.12-.81,1.1,1.13.29,1C151.06,167.56,150.91,166.7,151.34,166.49Z"/><path class="cls-60" d="M19.75,166.6c1.76.46,0,3.87.63,5.29-1.92.64-4.44-.37-3.59-2.61C16.94,167.26,20.48,168.88,19.75,166.6Z"/><path class="cls-53" d="M19.75,166.6c1.76.46,0,3.87.63,5.29-1.92.64-4.44-.37-3.59-2.61C16.94,167.26,20.48,168.88,19.75,166.6Z"/><path class="cls-61" d="M71.83,166.65c1-.06,2,0,3,0,2,.26,2.26,2.86,1.49,4.31-.94,1.43-3,.9-4.51.93C71.81,170.12,71.78,168.39,71.83,166.65Z"/><path class="cls-53" d="M71.83,166.65c1-.06,2,0,3,0,2,.26,2.26,2.86,1.49,4.31-.94,1.43-3,.9-4.51.93C71.81,170.12,71.78,168.39,71.83,166.65Z"/><path class="cls-62" d="M72.66,167.29c1.42-.43,3.39.11,3,1.89.5,1.71-1.59,2.49-3,2.07C72.63,169.93,72.63,168.59,72.66,167.29Z"/><path class="cls-53" d="M72.66,167.29c1.42-.43,3.39.11,3,1.89.5,1.71-1.59,2.49-3,2.07C72.63,169.93,72.63,168.59,72.66,167.29Z"/><path class="cls-63" d="M124.41,171.09c-3,1.63-2.31-2.42-2-3.82C122.59,168.94,121.34,172.11,124.41,171.09Z"/><path class="cls-53" d="M124.41,171.09c-3,1.63-2.31-2.42-2-3.82C122.59,168.94,121.34,172.11,124.41,171.09Z"/><path class="cls-64" d="M122.4,167.27c2.73-1.42,4.28,3,2,3.82C121.34,172.11,122.59,168.94,122.4,167.27Z"/><path class="cls-53" d="M122.4,167.27c2.73-1.42,4.28,3,2,3.82C121.34,172.11,122.59,168.94,122.4,167.27Z"/><path class="cls-65" d="M7.69,167.91c1.1,0,2.4-.16,3.37.43.55,1.08.29,2.37.29,3.53-1.22-.07-4.15.72-3.84-1.41.16-1.37,2.05-.81,3-1C10.71,167.67,7.37,169.5,7.69,167.91Z"/><path class="cls-53" d="M7.69,167.91c1.1,0,2.4-.16,3.37.43.55,1.08.29,2.37.29,3.53-1.22-.07-4.15.72-3.84-1.41.16-1.37,2.05-.81,3-1C10.71,167.67,7.37,169.5,7.69,167.91Z"/><path class="cls-66" d="M13,171.89c-.26-1.21-.88-5.26,1.67-3.84C12,167.27,13.28,170.38,13,171.89Z"/><path class="cls-53" d="M13,171.89c-.26-1.21-.88-5.26,1.67-3.84C12,167.27,13.28,170.38,13,171.89Z"/><path class="cls-65" d="M22.23,167.91c1.79,0,.49,2.83.8,4C21.26,172,22.63,169.06,22.23,167.91Z"/><path class="cls-53" d="M22.23,167.91c1.79,0,.49,2.83.8,4C21.26,172,22.63,169.06,22.23,167.91Z"/><path class="cls-67" d="M24.74,167.92c1.68.07,3.5-.28,5.11.36.87.95.16,2.46.36,3.61-2,.32.25-2.74-1.41-3.25-2.39-.84.56,3.82-1.72,3.25-.42-1,1-3.85-1.17-3.34-1.29.55.83,3.71-1.17,3.34C24.7,170.57,24.7,169.25,24.74,167.92Z"/><path class="cls-53" d="M24.74,167.92c1.68.07,3.5-.28,5.11.36.87.95.16,2.46.36,3.61-2,.32.25-2.74-1.41-3.25-2.39-.84.56,3.82-1.72,3.25-.42-1,1-3.85-1.17-3.34-1.29.55.83,3.71-1.17,3.34C24.7,170.57,24.7,169.25,24.74,167.92Z"/><path class="cls-68" d="M34.36,168c.9,0,3.34-.57,3.55.84v3c-1.25,0-4.24.63-3.65-1.56.18-1.62,3.3.18,2.8-1.57C36.28,168.24,34,169.15,34.36,168Z"/><path class="cls-53" d="M34.36,168c.9,0,3.34-.57,3.55.84v3c-1.25,0-4.24.63-3.65-1.56.18-1.62,3.3.18,2.8-1.57C36.28,168.24,34,169.15,34.36,168Z"/><path class="cls-55" d="M39.41,169.49c-.43-2,2.36-1.52,3.51-1.58.3,1.53-2.59-.21-2.69,1.27.24,1.07,2,.08,2.68.64.41.67.33,2-.67,2.05-2.34-.17.41.42-.44,1.46H40.47c.43-.21,1.35-.45.61-1-.18-1-2,.05-1.67-1.11,1-.05,1.91,0,2.84,0C42.7,169.28,39.6,171.19,39.41,169.49Z"/><path class="cls-53" d="M39.41,169.49c-.43-2,2.36-1.52,3.51-1.58.3,1.53-2.59-.21-2.69,1.27.24,1.07,2,.08,2.68.64.41.67.33,2-.67,2.05-2.34-.17.41.42-.44,1.46H40.47c.43-.21,1.35-.45.61-1-.18-1-2,.05-1.67-1.11,1-.05,1.91,0,2.84,0C42.7,169.28,39.6,171.19,39.41,169.49Z"/><path class="cls-69" d="M44.61,168.07a11.5,11.5,0,0,1,4.49,0Z"/><path class="cls-53" d="M44.61,168.07a11.5,11.5,0,0,1,4.49,0Z"/><path class="cls-57" d="M51.72,168c.9,0,3.34-.57,3.56.84v3c-1.22,0-4,.66-3.69-1.41.08-1.5,2.44-.58,3-1.1C54.61,167.7,51.25,169.39,51.72,168Z"/><path class="cls-53" d="M51.72,168c.9,0,3.34-.57,3.56.84v3c-1.22,0-4,.66-3.69-1.41.08-1.5,2.44-.58,3-1.1C54.61,167.7,51.25,169.39,51.72,168Z"/><path class="cls-70" d="M59.29,167.91c1.41-.13,1.13,2,2,2.71.92-.51.65-3.33,2.15-2.54-1,1.1-.91,3.73-2.58,3.78C60.47,170.5,59.45,169.31,59.29,167.91Z"/><path class="cls-53" d="M59.29,167.91c1.41-.13,1.13,2,2,2.71.92-.51.65-3.33,2.15-2.54-1,1.1-.91,3.73-2.58,3.78C60.47,170.5,59.45,169.31,59.29,167.91Z"/><path class="cls-52" d="M66.37,168c.66-.2,1.33-.19,1.1.54-.8.1-2.27-.12-2.37,1,.66.3,2.67-.59,2.37.63-.7.16-3-.51-2.19.82.53.79,2.56-.37,2.19.95-1.34.37-3.29,0-3.27-1.69A2,2,0,0,1,66.37,168Z"/><path class="cls-53" d="M66.37,168c.66-.2,1.33-.19,1.1.54-.8.1-2.27-.12-2.37,1,.66.3,2.67-.59,2.37.63-.7.16-3-.51-2.19.82.53.79,2.56-.37,2.19.95-1.34.37-3.29,0-3.27-1.69A2,2,0,0,1,66.37,168Z"/><path class="cls-55" d="M78,167.91a13,13,0,0,1,3.12.19c1.12.89.32,2.6.53,3.77-1.2-.17-3.22.67-3.77-.84-.38-1.7,1.79-1.62,3-1.54C81.16,167.67,77.64,169.5,78,167.91Z"/><path class="cls-53" d="M78,167.91a13,13,0,0,1,3.12.19c1.12.89.32,2.6.53,3.77-1.2-.17-3.22.67-3.77-.84-.38-1.7,1.79-1.62,3-1.54C81.16,167.67,77.64,169.5,78,167.91Z"/><path class="cls-61" d="M83.36,167.92c1.79-.22-.63,3.78,1.81,3.33,1.67.21.52-2.11.87-3.21,1.57.31.16,3.12.63,4.33-.33,1.26-2.49.73-3.39.68-.55-1.37,2.57.34,2.74-1.16C83.16,173,82.5,169.68,83.36,167.92Z"/><path class="cls-53" d="M83.36,167.92c1.79-.22-.63,3.78,1.81,3.33,1.67.21.52-2.11.87-3.21,1.57.31.16,3.12.63,4.33-.33,1.26-2.49.73-3.39.68-.55-1.37,2.57.34,2.74-1.16C83.16,173,82.5,169.68,83.36,167.92Z"/><path class="cls-71" d="M86,168c1.38-.55.86,3.36.63,4.33C86.2,171.16,87.61,168.35,86,168Z"/><path class="cls-53" d="M86,168c1.38-.55.86,3.36.63,4.33C86.2,171.16,87.61,168.35,86,168Z"/><path class="cls-67" d="M88.34,167.91a8.68,8.68,0,0,1,3.22.27c1,.94.24,2.53.44,3.69-1.19-.12-3.21.61-3.78-.84-.38-1.7,1.79-1.62,3-1.54C91.51,167.67,88,169.5,88.34,167.91Z"/><path class="cls-53" d="M88.34,167.91a8.68,8.68,0,0,1,3.22.27c1,.94.24,2.53.44,3.69-1.19-.12-3.21.61-3.78-.84-.38-1.7,1.79-1.62,3-1.54C91.51,167.67,88,169.5,88.34,167.91Z"/><path class="cls-67" d="M93.7,167.91c1.32-.11,3.84-.16,3.49,1.75-.28.69.7,2.68-.82,2.23,0-1.26.6-3.81-1.68-3.34-.89.6,1,3.76-1,3.34C93.67,170.57,93.67,169.23,93.7,167.91Z"/><path class="cls-53" d="M93.7,167.91c1.32-.11,3.84-.16,3.49,1.75-.28.69.7,2.68-.82,2.23,0-1.26.6-3.81-1.68-3.34-.89.6,1,3.76-1,3.34C93.67,170.57,93.67,169.23,93.7,167.91Z"/><path class="cls-72" d="M98.88,167.91c1.77-.11.4,2.82.8,4C97.91,172,99.28,169.06,98.88,167.91Z"/><path class="cls-53" d="M98.88,167.91c1.77-.11.4,2.82.8,4C97.91,172,99.28,169.06,98.88,167.91Z"/><path class="cls-67" d="M101.18,169.5c-.42-2,2.37-1.58,3.52-1.59.36,1.64-3.45-.42-2.6,1.67.83.22,1.77-.09,2.55.29a1.34,1.34,0,0,1-.35,2c-.36.13-1.85-.12-1.06.32.58.15.38.72.35,1.17h-1.37c.4-.24,1.35-.24.76-.74-.18-1.13-2.07-.21-1.78-1.32.92-.05,1.84,0,2.75-.08C104.57,169.37,101.28,171.13,101.18,169.5Z"/><path class="cls-53" d="M101.18,169.5c-.42-2,2.37-1.58,3.52-1.59.36,1.64-3.45-.42-2.6,1.67.83.22,1.77-.09,2.55.29a1.34,1.34,0,0,1-.35,2c-.36.13-1.85-.12-1.06.32.58.15.38.72.35,1.17h-1.37c.4-.24,1.35-.24.76-.74-.18-1.13-2.07-.21-1.78-1.32.92-.05,1.84,0,2.75-.08C104.57,169.37,101.28,171.13,101.18,169.5Z"/><path class="cls-69" d="M106.39,168.07a11.5,11.5,0,0,1,4.49,0Z"/><path class="cls-53" d="M106.39,168.07a11.5,11.5,0,0,1,4.49,0Z"/><path class="cls-67" d="M113.6,167.92a7,7,0,0,1,3.24.36c.5,1.09.12,2.42.2,3.59-1.15,0-3.75.61-3.75-1.2,0-1.49,1.87-1.15,2.94-1.18C116.84,167.64,112.6,169.47,113.6,167.92Z"/><path class="cls-53" d="M113.6,167.92a7,7,0,0,1,3.24.36c.5,1.09.12,2.42.2,3.59-1.15,0-3.75.61-3.75-1.2,0-1.49,1.87-1.15,2.94-1.18C116.84,167.64,112.6,169.47,113.6,167.92Z"/><path class="cls-73" d="M129.67,168c.47-.24,1.43-.18,1.27.52-.87,0-2.29-.06-2.56,1,.67.28,2.61-.58,2.56.63-.75.21-3.21-.55-2.37.82.55.82,2.68-.42,2.35.95-1.07.07-2.92.32-3.24-1A2,2,0,0,1,129.67,168Z"/><path class="cls-53" d="M129.67,168c.47-.24,1.43-.18,1.27.52-.87,0-2.29-.06-2.56,1,.67.28,2.61-.58,2.56.63-.75.21-3.21-.55-2.37.82.55.82,2.68-.42,2.35.95-1.07.07-2.92.32-3.24-1A2,2,0,0,1,129.67,168Z"/><path class="cls-74" d="M132.42,171.89c-.26-1.21-.9-5.26,1.67-3.84C131.37,167.27,132.67,170.38,132.42,171.89Z"/><path class="cls-53" d="M132.42,171.89c-.26-1.21-.9-5.26,1.67-3.84C131.37,167.27,132.67,170.38,132.42,171.89Z"/><path class="cls-65" d="M136.28,167.91a6.56,6.56,0,0,1,2.86.29c1.15.84.51,2.48.61,3.69-2,.3.3-2.9-1.55-3.3-2.69-1,.4,3.81-1.92,3.3C136.25,170.57,136.25,169.23,136.28,167.91Z"/><path class="cls-53" d="M136.28,167.91a6.56,6.56,0,0,1,2.86.29c1.15.84.51,2.48.61,3.69-2,.3.3-2.9-1.55-3.3-2.69-1,.4,3.81-1.92,3.3C136.25,170.57,136.25,169.23,136.28,167.91Z"/><path class="cls-75" d="M142.84,168c.6,0,1.94-.46,1.61.56-.82-.05-2.21-.06-2.37,1,.66.3,2.67-.59,2.37.63-.79,0-3.09-.43-2.12.93.88.06,3.5.49,1.28.86C140.79,172.85,140.2,168.23,142.84,168Z"/><path class="cls-53" d="M142.84,168c.6,0,1.94-.46,1.61.56-.82-.05-2.21-.06-2.37,1,.66.3,2.67-.59,2.37.63-.79,0-3.09-.43-2.12.93.88.06,3.5.49,1.28.86C140.79,172.85,140.2,168.23,142.84,168Z"/><path class="cls-74" d="M147,168.07c.43-.43,1.88,0,2.64-.15-.19,1.37.38,3.54-.16,4.59,0-1.48.06-3,0-4.43C148.6,168.05,147.79,168.05,147,168.07Z"/><path class="cls-53" d="M147,168.07c.43-.43,1.88,0,2.64-.15-.19,1.37.38,3.54-.16,4.59,0-1.48.06-3,0-4.43C148.6,168.05,147.79,168.05,147,168.07Z"/><path class="cls-76" d="M151.14,167.91c2.06-.46.67,3.2.82,4-.48-1,1-3.89-.65-3.82-.05,1.27,0,2.55,0,3.82C150.87,170.9,151.23,169.17,151.14,167.91Z"/><path class="cls-53" d="M151.14,167.91c2.06-.46.67,3.2.82,4-.48-1,1-3.89-.65-3.82-.05,1.27,0,2.55,0,3.82C150.87,170.9,151.23,169.17,151.14,167.91Z"/><path class="cls-60" d="M13,171.89c.25-1.51-1-4.62,1.67-3.84,1-.08,1.54,2.14.2,1.77.35-.84-.32-1.31-1-1.11-.39.79-.1,2.13-.17,3.18Z"/><path class="cls-53" d="M13,171.89c.25-1.51-1-4.62,1.67-3.84,1-.08,1.54,2.14.2,1.77.35-.84-.32-1.31-1-1.11-.39.79-.1,2.13-.17,3.18Z"/><path class="cls-60" d="M44.61,168.07H49.1c1.8.27.73,2.69,1,3.82-2,.34.15-2.66-1.26-3.25-2.12-.8-.62,2.3-1.08,3.25-2.27.51.65-3.89-1.66-3.36-1.93,0,.67,3.84-1.48,3.36C44.61,170.62,44.52,169.34,44.61,168.07Z"/><path class="cls-53" d="M44.61,168.07H49.1c1.8.27.73,2.69,1,3.82-2,.34.15-2.66-1.26-3.25-2.12-.8-.62,2.3-1.08,3.25-2.27.51.65-3.89-1.66-3.36-1.93,0,.67,3.84-1.48,3.36C44.61,170.62,44.52,169.34,44.61,168.07Z"/><path class="cls-72" d="M106.39,168.07h4.49c1.71.32.84,2.63,1,3.82-1.91.3,0-2.42-1.17-3.18-2-.88-.82,2.1-1.17,3.18-2.24.48.67-3.89-1.82-3.36-1.67,0,.85,3.89-1.32,3.36C106.37,170.62,106.31,169.34,106.39,168.07Z"/><path class="cls-53" d="M106.39,168.07h4.49c1.71.32.84,2.63,1,3.82-1.91.3,0-2.42-1.17-3.18-2-.88-.82,2.1-1.17,3.18-2.24.48.67-3.89-1.82-3.36-1.67,0,.85,3.89-1.32,3.36C106.37,170.62,106.31,169.34,106.39,168.07Z"/><path class="cls-77" d="M132.42,171.89c.25-1.51-1-4.62,1.67-3.84,1-.09,1.34,2.14.22,1.75a5.83,5.83,0,0,0-.25-1.08C131.64,168,134.41,172.21,132.42,171.89Z"/><path class="cls-53" d="M132.42,171.89c.25-1.51-1-4.62,1.67-3.84,1-.09,1.34,2.14.22,1.75a5.83,5.83,0,0,0-.25-1.08C131.64,168,134.41,172.21,132.42,171.89Z"/><path class="cls-77" d="M146.07,171.29c-.69-1-.51-2.86.9-3.22.82,0,1.63,0,2.47,0,.07,1.47,0,2.95,0,4.43a.67.67,0,0,1-.51.5c-.89,0-1.77,0-2.66,0-.13-1.08,1.67-.1,2.37-.59C149.14,171.19,146.53,172.5,146.07,171.29Z"/><path class="cls-53" d="M146.07,171.29c-.69-1-.51-2.86.9-3.22.82,0,1.63,0,2.47,0,.07,1.47,0,2.95,0,4.43a.67.67,0,0,1-.51.5c-.89,0-1.77,0-2.66,0-.13-1.08,1.67-.1,2.37-.59C149.14,171.19,146.53,172.5,146.07,171.29Z"/><path class="cls-78" d="M151.31,168.07c1.64-.07.17,2.83.65,3.82h-.67C151.29,170.62,151.26,169.34,151.31,168.07Z"/><path class="cls-53" d="M151.31,168.07c1.64-.07.17,2.83.65,3.82h-.67C151.29,170.62,151.26,169.34,151.31,168.07Z"/><path class="cls-79" d="M18.44,168.59c2-.71,1.14,1.71,1.25,2.66C17.62,172.35,16.66,169.17,18.44,168.59Z"/><path class="cls-53" d="M18.44,168.59c2-.71,1.14,1.71,1.25,2.66C17.62,172.35,16.66,169.17,18.44,168.59Z"/><path class="cls-80" d="M147.35,168.59c2-.76,1.4,1.58,1.42,2.66C146.75,172.34,145.66,169.25,147.35,168.59Z"/><path class="cls-53" d="M147.35,168.59c2-.76,1.4,1.58,1.42,2.66C146.75,172.34,145.66,169.25,147.35,168.59Z"/><path class="cls-81" d="M13.7,171.89c.07-1-.22-2.39.17-3.18C13.7,169.63,14.22,171.22,13.7,171.89Z"/><path class="cls-53" d="M13.7,171.89c.07-1-.22-2.39.17-3.18C13.7,169.63,14.22,171.22,13.7,171.89Z"/><path class="cls-82" d="M37.91,168.86c.19.59.45,2.44,0,3Z"/><path class="cls-53" d="M37.91,168.86c.19.59.45,2.44,0,3Z"/><path class="cls-83" d="M55.28,168.86c.18.59.45,2.44,0,3Z"/><path class="cls-53" d="M55.28,168.86c.18.59.45,2.44,0,3Z"/><path class="cls-84" d="M8.76,170.16c.43,0,1.32,0,1.77,0C11.65,172.1,7,171.52,8.76,170.16Z"/><path class="cls-53" d="M8.76,170.16c.43,0,1.32,0,1.77,0C11.65,172.1,7,171.52,8.76,170.16Z"/><path class="cls-85" d="M35.29,170.16c.74,0,2.46-.47,2,.93C36.83,171.56,34.11,171.51,35.29,170.16Z"/><path class="cls-53" d="M35.29,170.16c.74,0,2.46-.47,2,.93C36.83,171.56,34.11,171.51,35.29,170.16Z"/><path class="cls-85" d="M52.66,170.16a14.1,14.1,0,0,1,2,0C55.68,172,51.29,171.7,52.66,170.16Z"/><path class="cls-53" d="M52.66,170.16a14.1,14.1,0,0,1,2,0C55.68,172,51.29,171.7,52.66,170.16Z"/><path class="cls-84" d="M79.06,170.16l1.77,0C81.93,172.08,77.37,171.51,79.06,170.16Z"/><path class="cls-53" d="M79.06,170.16l1.77,0C81.93,172.08,77.37,171.51,79.06,170.16Z"/><path class="cls-86" d="M89.41,170.16c.78,0,2.4-.53,1.77.93C90.76,171.84,88,171.13,89.41,170.16Z"/><path class="cls-53" d="M89.41,170.16c.78,0,2.4-.53,1.77.93C90.76,171.84,88,171.13,89.41,170.16Z"/><path class="cls-87" d="M114.44,170.16c.8.06,2.42-.55,1.79.93C115.81,171.62,113.25,171.41,114.44,170.16Z"/><path class="cls-53" d="M114.44,170.16c.8.06,2.42-.55,1.79.93C115.81,171.62,113.25,171.41,114.44,170.16Z"/><path class="cls-88" d="M146.12,173.15c-.44-1.45,1.63-.65,2.53-.75-.7.49-2.5-.49-2.37.59.89,0,1.77,0,2.66,0C148.4,173.39,147,173.1,146.12,173.15Z"/><path class="cls-89" d="M146.12,173.15c-.44-1.45,1.63-.65,2.53-.75-.7.49-2.5-.49-2.37.59.89,0,1.77,0,2.66,0C148.4,173.39,147,173.1,146.12,173.15Z"/></g></g></svg>