<svg xmlns="http://www.w3.org/2000/svg" viewBox="0 0 89.57 89.57"><defs><style>.cls-1{fill:#00aeef;}.cls-1,.cls-2{fill-rule:evenodd;}.cls-2{fill:#fff;}</style></defs><g id="Layer_2" data-name="Layer 2"><g id="Layer_1-2" data-name="Layer 1"><path class="cls-1" d="M44.79,0A44.79,44.79,0,1,1,0,44.79,44.87,44.87,0,0,1,44.79,0Z"/><path class="cls-2" d="M50.88,40.09a16.52,16.52,0,0,0-.46-3.61,15.39,15.39,0,0,0,.38-2.76,16.29,16.29,0,0,0-.38-1.92A44.9,44.9,0,0,0,50.19,25c.89-.18,1.5-.88,1.53-2.69,0-1.1.05-2.21.08-3.31L48.42,19c-.17-.16.08-.31.77-.46V15.74h-1c0-1.77,0-3.53-.08-5.3l.85-.08c-.05-.71-.11-1.43-.16-2.15s-1.59-.81-2.65-1.3H41.71A22.34,22.34,0,0,0,38.89,8c0,1,.06,1.72.08,2.69l.85-.38c0,1.79,0,3.58.07,5.37-.41.11-.72.21-1.13.31,0,.87.05,1.71.08,2.58.41,0,.72,0,1.13,0l-.31.38-4.07-.15c0,1.46-.15,2.92-.08,4.37A4.9,4.9,0,0,0,37.2,26c.13,1.34.19,2.7.32,4a27.13,27.13,0,0,0-.32,6.42,10.74,10.74,0,0,1-1.07,6.22,21.86,21.86,0,0,1-3.37.23c-.89.81-1.5,1.43-2.39.77a25.29,25.29,0,0,1-8.3,6.3c-.15.45-.18.83.62.77a52.38,52.38,0,0,0,10.75-1.84,14.55,14.55,0,0,1,3.38.46c1,1,2.57,1,4.3.84a29.76,29.76,0,0,0,6.61-1.3L51,48.62a25.7,25.7,0,0,0,6.61.77l1.23-.85c.52.06.81.5,1.08,1a3.26,3.26,0,0,1,3,.46l1-.69a31.93,31.93,0,0,0,3.38.69c.08-.31.19-.42.26-.73-2-.75-3.43-3.38-4.87-5.8-.32.26-.87-.62-1.54-1.92a23.78,23.78,0,0,0-2.91-2.94,3.35,3.35,0,0,0-4.84.43c-.75.83-1.44,1.36-2.46,1.05ZM44,11.51a1.36,1.36,0,1,1-1.36,1.35A1.36,1.36,0,0,1,44,11.51ZM44.69,28a1.44,1.44,0,1,1-1.43,1.43A1.44,1.44,0,0,1,44.69,28Zm0,8.3a1.44,1.44,0,1,1-1.43,1.43,1.44,1.44,0,0,1,1.43-1.43Z"/><path class="cls-2" d="M8.54,62.43a3.31,3.31,0,0,1-1.06-.11.38.38,0,0,1-.25-.39c0-.16.11-.29.34-.38A1,1,0,0,0,8,61.31a1.26,1.26,0,0,0,.09-.37,5.35,5.35,0,0,0,0-.76c0-.14,0-.63,0-1.46,0-.42,0-.79,0-1.11s0-.78,0-1.32,0-.92,0-1.12a5.35,5.35,0,0,0,0-.76A1.48,1.48,0,0,0,8,54c0-.07-.18-.14-.42-.24s-.35-.23-.35-.41A.39.39,0,0,1,7.51,53a3.52,3.52,0,0,1,1.07-.11h.56l.68,0h.42l.44,0,.76,0a5.34,5.34,0,0,1,3.82,1.28,4.78,4.78,0,0,1,1.34,3.62,4.36,4.36,0,0,1-1.37,3.48,6,6,0,0,1-4,1.19l-.75,0-.83,0-.55,0Zm6.12-4.61a4.55,4.55,0,0,0-.86-3,3.1,3.1,0,0,0-2.52-1,2.56,2.56,0,0,0-.83.1.54.54,0,0,0-.37.31,2.23,2.23,0,0,0-.1.41,3.74,3.74,0,0,0,0,.61c0,.19,0,.51,0,1s0,.81,0,1c0,.39,0,.74,0,1.06,0,1,0,1.47,0,1.48a6,6,0,0,0,0,.8,2.88,2.88,0,0,0,.09.45c0,.12.21.24.51.33a3.24,3.24,0,0,0,1,.15,2.84,2.84,0,0,0,2.29-.91,4.26,4.26,0,0,0,.76-2.77Zm5.09,1.24h-.09a1.16,1.16,0,0,0-.44,0,.47.47,0,0,0-.07.31,2,2,0,0,0,2,2,2.28,2.28,0,0,0,.7-.11,2.35,2.35,0,0,0,.65-.33l.24-.18a1,1,0,0,1,.51-.27.36.36,0,0,1,.24.09.29.29,0,0,1,.1.23.69.69,0,0,1-.16.38,2.16,2.16,0,0,1-.45.46,4,4,0,0,1-1.11.69,3.41,3.41,0,0,1-1.16.2,3.16,3.16,0,0,1-2.35-1,3.29,3.29,0,0,1-.95-2.38,3.55,3.55,0,0,1,1-2.55,3.29,3.29,0,0,1,2.48-1,2.74,2.74,0,0,1,2,.73,2.61,2.61,0,0,1,.75,2,.84.84,0,0,1-.12.53.91.91,0,0,1-.62.14Zm-.14-.76H22l.13,0a.22.22,0,0,0,.08-.2A1.46,1.46,0,0,0,21.75,57a1.44,1.44,0,0,0-1.08-.44,1.38,1.38,0,0,0-1,.44,1.49,1.49,0,0,0-.42,1.07.23.23,0,0,0,.08.2.75.75,0,0,0,.32,0ZM27,56.5l.13-.13a2.27,2.27,0,0,1,1.56-.67,2.08,2.08,0,0,1,.91.2,2.17,2.17,0,0,1,.74.56,2.24,2.24,0,0,1,.44.87,4.31,4.31,0,0,1,.09.63,8.46,8.46,0,0,1,0,.94v1.71a2.41,2.41,0,0,0,.06.66.48.48,0,0,0,.23.29l.17.07c.21.08.32.19.32.34a.42.42,0,0,1-.31.4,2,2,0,0,1-.47.07q-.32,0-.84,0a4.71,4.71,0,0,1-1.23-.1c-.22-.06-.32-.18-.32-.35s.11-.29.33-.38a1.26,1.26,0,0,0,.25-.11.48.48,0,0,0,.21-.36c0-.09,0-.23.05-.4s0-.39,0-.62a7.62,7.62,0,0,0-.27-2.64,1,1,0,0,0-1-.54,1.2,1.2,0,0,0-.67.21,1.46,1.46,0,0,0-.5.57,1.27,1.27,0,0,0-.12.33,4.56,4.56,0,0,0-.08.47q-.06.53-.06,1.83a5,5,0,0,0,.05.87.41.41,0,0,0,.2.27l.25.11c.22.08.33.2.33.38s-.11.28-.32.36a4.7,4.7,0,0,1-1.19.1,5.22,5.22,0,0,1-1.34-.11.39.39,0,0,1-.32-.4c0-.14.11-.25.32-.34a.6.6,0,0,0,.17-.07.54.54,0,0,0,.24-.32,2.53,2.53,0,0,0,.07-.72V58.85a10,10,0,0,0-.05-1.38c0-.2-.09-.32-.17-.36a2,2,0,0,0-.33-.12c-.27-.09-.4-.2-.4-.35a.35.35,0,0,1,.12-.26,1.22,1.22,0,0,1,.41-.24,7.41,7.41,0,0,1,.95-.3,3,3,0,0,1,.69-.12.3.3,0,0,1,.26.11.44.44,0,0,1,.09.31v.5l0,0h0l0,0L27,56.5Zm7.6,2.14v0l0,1.63a5.62,5.62,0,0,0,0,.88.53.53,0,0,0,.21.35l.25.1c.22.08.33.2.33.38s-.11.28-.32.36a4.7,4.7,0,0,1-1.19.1,5.22,5.22,0,0,1-1.34-.11.39.39,0,0,1-.32-.4c0-.14.11-.25.32-.34a.6.6,0,0,0,.17-.07.54.54,0,0,0,.24-.32,2.53,2.53,0,0,0,.07-.72V58.85A10,10,0,0,0,33,57.47c0-.2-.09-.32-.17-.36a2,2,0,0,0-.33-.12c-.27-.09-.41-.2-.41-.35a.35.35,0,0,1,.12-.26,1.33,1.33,0,0,1,.41-.24c.3-.11.63-.22,1-.31a3.41,3.41,0,0,1,.72-.13.27.27,0,0,1,.25.13.88.88,0,0,1,.08.43V57l0,1.69Zm-1.94-4.92a.8.8,0,0,1,.31-.63,1.08,1.08,0,0,1,.75-.27,1,1,0,0,1,.71.24.76.76,0,0,1,.29.6.8.8,0,0,1-.31.62,1.19,1.19,0,0,1-.77.25,1.09,1.09,0,0,1-.7-.23.7.7,0,0,1-.28-.58ZM39.11,57l.07-.16,0-.12a.06.06,0,0,0-.05-.07l-.08,0H38a1.53,1.53,0,0,0-.67.1.89.89,0,0,0-.39.42l-.1.17c-.17.33-.35.49-.53.49a.28.28,0,0,1-.23-.12.58.58,0,0,1-.08-.33,2.79,2.79,0,0,1,.24-1.15c.17-.35.35-.52.54-.52l.32.09a2.28,2.28,0,0,0,.63.09h3.08a1,1,0,0,1,.42.06.25.25,0,0,1,.11.23.31.31,0,0,1,0,.13.91.91,0,0,1-.1.2l-3.11,4.8-.06.12v.08a.09.09,0,0,0,0,.09l.1,0h1.31a2.18,2.18,0,0,0,.85-.11,1.15,1.15,0,0,0,.42-.43l.13-.23c.16-.27.3-.4.44-.4a.28.28,0,0,1,.23.14.68.68,0,0,1,.09.37,2.58,2.58,0,0,1-.23,1.08c-.16.32-.33.49-.52.49l-.16,0c-.16,0-.31-.06-.44-.08l-.44,0H36.55a1.08,1.08,0,0,1-.5-.07.24.24,0,0,1-.1-.23.38.38,0,0,1,0-.17,1.45,1.45,0,0,1,.17-.31l3-4.6ZM49.73,57a1.32,1.32,0,0,0,.74-.15.87.87,0,0,0,.27-.56v-.12c.07-.46.22-.69.46-.69s.31.12.39.36a7.49,7.49,0,0,1,.11,1.63,6.66,6.66,0,0,1-.11,1.62q-.09.36-.39.36c-.23,0-.38-.23-.46-.7a.34.34,0,0,0,0-.11.83.83,0,0,0-.27-.56,1.21,1.21,0,0,0-.73-.16H48.65a.27.27,0,0,0-.25.12,1.39,1.39,0,0,0-.06.53V59c0,1,0,1.61,0,1.87s.08.41.17.47l.29.15c.27.1.4.24.4.42s-.12.33-.36.4a5.29,5.29,0,0,1-1.4.12,6.18,6.18,0,0,1-1.43-.11.44.44,0,0,1-.35-.42c0-.17.11-.3.35-.39a1,1,0,0,0,.41-.23,1.07,1.07,0,0,0,.1-.38,5.35,5.35,0,0,0,0-.76c0-.13,0-.62,0-1.46,0-.42,0-.79,0-1.11s0-.78,0-1.32,0-.92,0-1.12a5.35,5.35,0,0,0,0-.76,1.62,1.62,0,0,0-.09-.37,1.11,1.11,0,0,0-.42-.24c-.23-.1-.35-.24-.35-.43s.1-.27.3-.34a6.54,6.54,0,0,1,1.44-.1h4.38l.33-.06.35-.07a.29.29,0,0,1,.16,0,.25.25,0,0,1,.12.11,3.36,3.36,0,0,1,.25.69,3.12,3.12,0,0,1,.13.78.83.83,0,0,1-.11.45.36.36,0,0,1-.31.17c-.14,0-.31-.16-.5-.46l-.19-.31a.92.92,0,0,0-.44-.31,2.31,2.31,0,0,0-.74-.11H50a4.72,4.72,0,0,0-1,.07.68.68,0,0,0-.43.23,1.25,1.25,0,0,0-.16.57,10.51,10.51,0,0,0,0,1.26v.53a.82.82,0,0,0,0,.4c0,.05.12.07.25.07ZM55,59.06h-.09a1.06,1.06,0,0,0-.43,0s-.08.14-.08.31a2,2,0,0,0,2,2,2.28,2.28,0,0,0,.7-.11,2.35,2.35,0,0,0,.65-.33l.24-.18a1,1,0,0,1,.51-.27.36.36,0,0,1,.24.09.29.29,0,0,1,.1.23.69.69,0,0,1-.16.38,2.16,2.16,0,0,1-.45.46,4,4,0,0,1-1.11.69,3.41,3.41,0,0,1-1.16.2,3.16,3.16,0,0,1-2.35-1,3.29,3.29,0,0,1-1-2.38,3.55,3.55,0,0,1,1-2.55,3.29,3.29,0,0,1,2.48-1,2.72,2.72,0,0,1,2,.73,2.61,2.61,0,0,1,.75,2,.84.84,0,0,1-.12.53c-.08.09-.28.14-.62.14Zm-.13-.76h2.35l.13,0a.22.22,0,0,0,.08-.2A1.46,1.46,0,0,0,57,57a1.44,1.44,0,0,0-1.08-.44,1.38,1.38,0,0,0-1,.44,1.49,1.49,0,0,0-.42,1.07.23.23,0,0,0,.08.2.77.77,0,0,0,.33,0Zm7.39-1.8.13-.13a2.27,2.27,0,0,1,1.56-.67,2.08,2.08,0,0,1,.91.2,2.17,2.17,0,0,1,.74.56,2.24,2.24,0,0,1,.44.87,4.31,4.31,0,0,1,.09.63,8.46,8.46,0,0,1,0,.94v1.71a2.41,2.41,0,0,0,.06.66.48.48,0,0,0,.23.29l.17.07c.21.08.32.19.32.34a.42.42,0,0,1-.31.4,2,2,0,0,1-.47.07q-.31,0-.84,0a4.71,4.71,0,0,1-1.23-.1c-.21-.06-.32-.18-.32-.35s.11-.29.33-.38a1.26,1.26,0,0,0,.25-.11.48.48,0,0,0,.21-.36c0-.09,0-.23,0-.4s0-.39,0-.62a7.62,7.62,0,0,0-.27-2.64,1,1,0,0,0-1-.54,1.2,1.2,0,0,0-.67.21,1.46,1.46,0,0,0-.5.57,1.78,1.78,0,0,0-.12.33,4.56,4.56,0,0,0-.08.47q-.06.53-.06,1.83a5,5,0,0,0,0,.87.41.41,0,0,0,.2.27l.25.11c.22.08.33.2.33.38s-.11.28-.32.36a4.7,4.7,0,0,1-1.19.1,5.22,5.22,0,0,1-1.34-.11.39.39,0,0,1-.32-.4c0-.14.11-.25.32-.34a.6.6,0,0,0,.17-.07.54.54,0,0,0,.24-.32,2.53,2.53,0,0,0,.07-.72V58.85a10,10,0,0,0,0-1.38c0-.2-.09-.32-.17-.36a2,2,0,0,0-.33-.12c-.27-.09-.4-.2-.4-.35a.35.35,0,0,1,.12-.26,1.22,1.22,0,0,1,.41-.24,7.41,7.41,0,0,1,1-.3,3.08,3.08,0,0,1,.69-.12.3.3,0,0,1,.26.11.44.44,0,0,1,.09.31v.5l0,0h0l0,0,.16-.14Zm7.6,2.56h-.09a1.06,1.06,0,0,0-.43,0s-.08.14-.08.31a2,2,0,0,0,2,2,2.28,2.28,0,0,0,.7-.11A2.35,2.35,0,0,0,72.6,61l.24-.18a1,1,0,0,1,.51-.27.36.36,0,0,1,.24.09.29.29,0,0,1,.1.23.69.69,0,0,1-.16.38,2.16,2.16,0,0,1-.45.46,4,4,0,0,1-1.11.69,3.41,3.41,0,0,1-1.16.2,3.16,3.16,0,0,1-2.35-1,3.28,3.28,0,0,1-.94-2.38,3.54,3.54,0,0,1,1-2.55,3.31,3.31,0,0,1,2.48-1,2.76,2.76,0,0,1,2,.73,2.65,2.65,0,0,1,.74,2,.84.84,0,0,1-.12.53c-.08.09-.28.14-.62.14Zm-.13-.76h2.36l.12,0a.22.22,0,0,0,.08-.2A1.46,1.46,0,0,0,71.82,57a1.44,1.44,0,0,0-1.08-.44,1.4,1.4,0,0,0-1,.44,1.48,1.48,0,0,0-.41,1.07.21.21,0,0,0,.08.2.72.72,0,0,0,.32,0Zm7.08-1.54.06,0a2.85,2.85,0,0,1,.7-.81,1.23,1.23,0,0,1,.75-.28.95.95,0,0,1,1,1,1.14,1.14,0,0,1-.21.72.71.71,0,0,1-.59.27.88.88,0,0,1-.33-.06.69.69,0,0,1-.28-.2.85.85,0,0,1-.15-.26c0-.11-.09-.17-.15-.17-.3,0-.51.22-.63.65a11.94,11.94,0,0,0-.18,2.63,3.83,3.83,0,0,0,.07.86.56.56,0,0,0,.26.38l.26.08c.27.09.4.22.4.4s-.12.28-.37.35a7.79,7.79,0,0,1-2.61,0,.4.4,0,0,1-.32-.4c0-.14.11-.25.32-.33l.18-.08a.49.49,0,0,0,.23-.32,2.45,2.45,0,0,0,.08-.72V59.14c0-.8,0-1.33,0-1.57s-.1-.41-.2-.47L74.71,57c-.27-.09-.4-.2-.4-.35a.37.37,0,0,1,.12-.27,1.31,1.31,0,0,1,.41-.23c.3-.11.59-.21.88-.29a3.23,3.23,0,0,1,.6-.11c.21,0,.35.3.43.89l0,.13Zm5.1,1.88v0l0,1.63a4.37,4.37,0,0,0,.06.88.49.49,0,0,0,.2.35l.25.1c.22.08.33.2.33.38s-.1.28-.32.36a4.65,4.65,0,0,1-1.19.1,5.28,5.28,0,0,1-1.34-.11.4.4,0,0,1-.32-.4c0-.14.11-.25.32-.34a.6.6,0,0,0,.17-.07.54.54,0,0,0,.24-.32,2.45,2.45,0,0,0,.08-.72V58.85a9.38,9.38,0,0,0-.06-1.38c0-.2-.09-.32-.17-.36a2,2,0,0,0-.33-.12c-.27-.09-.4-.2-.4-.35a.35.35,0,0,1,.12-.26,1.22,1.22,0,0,1,.41-.24,10.08,10.08,0,0,1,1-.31,3.41,3.41,0,0,1,.72-.13.27.27,0,0,1,.25.13.76.76,0,0,1,.09.43V57l0,1.69Zm-2-4.92a.8.8,0,0,1,.31-.63,1.09,1.09,0,0,1,.76-.27,1.07,1.07,0,0,1,.71.24.78.78,0,0,1,.28.6.8.8,0,0,1-.31.62,1.17,1.17,0,0,1-.77.25,1.09,1.09,0,0,1-.7-.23.7.7,0,0,1-.28-.58ZM22.65,75a3.35,3.35,0,0,1-1.06-.11.38.38,0,0,1-.25-.38c0-.17.12-.3.35-.39a1,1,0,0,0,.42-.24,1.26,1.26,0,0,0,.09-.37,5.15,5.15,0,0,0,.05-.76c0-.14,0-.62,0-1.46,0-.42,0-.79,0-1.11s0-.78,0-1.32,0-.91,0-1.12a7,7,0,0,0,0-.75,1.15,1.15,0,0,0-.1-.38,1,1,0,0,0-.41-.24c-.24-.09-.36-.23-.36-.41a.38.38,0,0,1,.28-.37,3.26,3.26,0,0,1,1.07-.11h.57l.67,0h.86l.76,0a5.34,5.34,0,0,1,3.82,1.28,4.75,4.75,0,0,1,1.34,3.63,4.32,4.32,0,0,1-1.37,3.47,6,6,0,0,1-4,1.19l-.75,0-.82,0-.56,0Zm6.13-4.61a4.55,4.55,0,0,0-.87-3,3.08,3.08,0,0,0-2.51-1,2.54,2.54,0,0,0-.84.11.54.54,0,0,0-.37.31,2.15,2.15,0,0,0-.09.41,3.54,3.54,0,0,0-.05.6c0,.19,0,.52,0,1s0,.81,0,1c0,.38,0,.74,0,1.06,0,1,0,1.46,0,1.48a5.91,5.91,0,0,0,0,.79,2.88,2.88,0,0,0,.09.45c0,.13.21.24.51.34a3.31,3.31,0,0,0,1,.14A2.81,2.81,0,0,0,28,73.15a4.3,4.3,0,0,0,.76-2.77Zm5.08,1.24h-.09a.87.87,0,0,0-.43.06c-.05,0-.07.14-.07.3a2,2,0,0,0,2,2,2.28,2.28,0,0,0,.7-.1,3.06,3.06,0,0,0,.65-.33l.24-.19a1,1,0,0,1,.52-.27.33.33,0,0,1,.23.09.3.3,0,0,1,.1.23.74.74,0,0,1-.16.39,2.41,2.41,0,0,1-.45.46A4.21,4.21,0,0,1,36,75a3.15,3.15,0,0,1-1.16.21,3.2,3.2,0,0,1-2.35-1,3.27,3.27,0,0,1-.94-2.38,3.51,3.51,0,0,1,1-2.55,3.27,3.27,0,0,1,2.47-1A2.76,2.76,0,0,1,37,69a2.65,2.65,0,0,1,.74,2,.8.8,0,0,1-.12.53c-.07.09-.28.14-.62.14Zm-.13-.76h2.36a.28.28,0,0,0,.12,0,.21.21,0,0,0,.08-.19,1.49,1.49,0,0,0-.42-1.08,1.47,1.47,0,0,0-1.09-.43,1.39,1.39,0,0,0-1,.43,1.53,1.53,0,0,0-.41,1.08.23.23,0,0,0,.08.19.6.6,0,0,0,.32,0Zm7.08-1.53.06,0a3.11,3.11,0,0,1,.7-.8,1.27,1.27,0,0,1,.76-.29,1,1,0,0,1,.73.28,1,1,0,0,1,.27.74,1.14,1.14,0,0,1-.21.72.7.7,0,0,1-.59.27.72.72,0,0,1-.33-.07.7.7,0,0,1-.27-.19.89.89,0,0,1-.16-.26c0-.12-.09-.17-.14-.17-.31,0-.52.21-.64.64a12.07,12.07,0,0,0-.18,2.63,3.77,3.77,0,0,0,.07.86.56.56,0,0,0,.26.38l.26.09c.27.08.4.21.4.39s-.12.28-.37.35a4.75,4.75,0,0,1-1.27.11,5.44,5.44,0,0,1-1.34-.1.42.42,0,0,1-.32-.4c0-.15.11-.26.32-.34l.18-.08a.54.54,0,0,0,.24-.32,2.53,2.53,0,0,0,.07-.72V71.71c0-.81,0-1.34-.05-1.58a.69.69,0,0,0-.2-.47l-.31-.11c-.27-.08-.4-.2-.4-.35a.37.37,0,0,1,.12-.27,1.27,1.27,0,0,1,.42-.23,7.32,7.32,0,0,1,.87-.28,2.74,2.74,0,0,1,.6-.12c.21,0,.35.3.43.89l0,.14Z"/><path class="cls-2" d="M46.18,69.06l.14-.13a2.28,2.28,0,0,1,1.55-.67,2.19,2.19,0,0,1,.91.2,2.34,2.34,0,0,1,.75.56,2.22,2.22,0,0,1,.43.87,4.12,4.12,0,0,1,.1.64c0,.25,0,.56,0,.94v1.7a2.55,2.55,0,0,0,.06.67.5.5,0,0,0,.23.28l.17.08c.21.07.32.19.32.34a.4.4,0,0,1-.3.39,2.14,2.14,0,0,1-.47.08c-.21,0-.5,0-.85,0A5.39,5.39,0,0,1,48,74.94c-.21-.06-.32-.18-.32-.36s.11-.29.33-.37a1,1,0,0,0,.25-.11.55.55,0,0,0,.22-.37c0-.09,0-.22,0-.4s0-.38,0-.61a7.66,7.66,0,0,0-.27-2.65,1,1,0,0,0-1-.53,1.23,1.23,0,0,0-.67.21,1.46,1.46,0,0,0-.5.57,1.82,1.82,0,0,0-.11.33,2.46,2.46,0,0,0-.09.47q-.06.51-.06,1.83a3.88,3.88,0,0,0,.06.86.42.42,0,0,0,.19.28l.25.11c.22.07.33.2.33.37s-.1.29-.32.36a4.65,4.65,0,0,1-1.19.1,5.44,5.44,0,0,1-1.34-.1.42.42,0,0,1-.32-.4c0-.15.11-.26.32-.35a.6.6,0,0,0,.17-.07.54.54,0,0,0,.24-.32,2.45,2.45,0,0,0,.08-.72V71.41A9.21,9.21,0,0,0,44.3,70c0-.21-.09-.33-.16-.37a2.14,2.14,0,0,0-.34-.12c-.27-.08-.4-.2-.4-.35a.37.37,0,0,1,.12-.26,1.92,1.92,0,0,1,.41-.24c.33-.12.64-.22,1-.3a3.59,3.59,0,0,1,.69-.11.33.33,0,0,1,.27.1.52.52,0,0,1,.08.31v.51l0,0h0l0,0,.15-.14Zm7.6,2.56h-.09a.87.87,0,0,0-.43.06s-.07.14-.07.3a2,2,0,0,0,2,2,2.39,2.39,0,0,0,.71-.1,3.25,3.25,0,0,0,.64-.33l.24-.19a1,1,0,0,1,.52-.27.33.33,0,0,1,.23.09.31.31,0,0,1,.11.23.78.78,0,0,1-.17.39,2.41,2.41,0,0,1-.45.46,4.06,4.06,0,0,1-1.11.68,3.11,3.11,0,0,1-1.16.21,3.16,3.16,0,0,1-2.34-1,3.23,3.23,0,0,1-1-2.38,3.51,3.51,0,0,1,1-2.55,3.28,3.28,0,0,1,2.48-1A2.74,2.74,0,0,1,57,69a2.61,2.61,0,0,1,.74,2,.88.88,0,0,1-.11.53.91.91,0,0,1-.62.14Zm-.13-.76H56a.28.28,0,0,0,.12,0,.21.21,0,0,0,.08-.19,1.49,1.49,0,0,0-.42-1.08,1.47,1.47,0,0,0-1.09-.43,1.39,1.39,0,0,0-1,.43,1.53,1.53,0,0,0-.41,1.08.23.23,0,0,0,.08.19.6.6,0,0,0,.32,0ZM60.29,75a1.34,1.34,0,0,0-.26.34,1.19,1.19,0,0,0-.08.4.87.87,0,0,0,.47.75,2.5,2.5,0,0,0,1.28.28,2.86,2.86,0,0,0,1.47-.34,1,1,0,0,0,.59-.85.58.58,0,0,0-.22-.48,1,1,0,0,0-.63-.18c-.13,0-.39,0-.77.07l-.54,0a4.36,4.36,0,0,1-.48,0h-.43l-.4,0Zm.08-4.42a1.72,1.72,0,0,0,.34,1.1,1.1,1.1,0,0,0,.88.41,1.2,1.2,0,0,0,.93-.42,1.6,1.6,0,0,0,.37-1.07,1.66,1.66,0,0,0-.36-1.1,1.18,1.18,0,0,0-.93-.43,1.09,1.09,0,0,0-.87.43,1.64,1.64,0,0,0-.36,1.08Zm-.76,1.86a2.08,2.08,0,0,1-.57-.75,2.12,2.12,0,0,1-.21-.94A2.27,2.27,0,0,1,59.64,69a3,3,0,0,1,2.06-.72,4.62,4.62,0,0,1,.7.06c.12,0,.27,0,.43.08l.59.12A1.47,1.47,0,0,0,64,68.4a4.57,4.57,0,0,0,.69-.41.58.58,0,0,1,.21.2.4.4,0,0,1,.08.23.83.83,0,0,1-.21.53,1.85,1.85,0,0,1-.6.47,2,2,0,0,1,.21.54,1.59,1.59,0,0,1,0,.26,1.27,1.27,0,0,1,0,.27,2.22,2.22,0,0,1-.8,1.79,3.09,3.09,0,0,1-2.1.69h-.3a2.32,2.32,0,0,1-.45-.06,3.31,3.31,0,0,1-.58-.15A2,2,0,0,0,60,73a.6.6,0,0,0-.06.24.49.49,0,0,0,.31.46,2.36,2.36,0,0,0,1,.15,9.27,9.27,0,0,0,1-.07,10,10,0,0,1,1-.08,2.26,2.26,0,0,1,1.41.38,1.26,1.26,0,0,1,.49,1.07,2.06,2.06,0,0,1-1,1.75,4.59,4.59,0,0,1-2.64.71,4,4,0,0,1-2.09-.51,1.48,1.48,0,0,1-.84-1.25,1,1,0,0,1,.21-.59,2.59,2.59,0,0,1,.72-.59,1.4,1.4,0,0,1-.59-.38.91.91,0,0,1-.21-.6,1.07,1.07,0,0,1,.24-.65,2.54,2.54,0,0,1,.72-.62Zm2-6.12a2.24,2.24,0,0,0,.83-.12,1,1,0,0,0,.47-.41l.07-.13c.07-.18.17-.26.28-.26a.25.25,0,0,1,.16,0,.2.2,0,0,1,.06.17,1.54,1.54,0,0,1-.5,1.22,2,2,0,0,1-1.37.46,2,2,0,0,1-1.38-.46,1.59,1.59,0,0,1-.5-1.22.21.21,0,0,1,.06-.16.24.24,0,0,1,.17-.06c.11,0,.2.08.27.25l.07.14a.93.93,0,0,0,.47.4,2.18,2.18,0,0,0,.84.13Zm6.18,4.86v0l0,1.62a5.62,5.62,0,0,0,0,.88.5.5,0,0,0,.21.35l.25.11c.22.07.33.2.33.37s-.11.29-.32.36a4.7,4.7,0,0,1-1.19.1,5.38,5.38,0,0,1-1.34-.1.41.41,0,0,1-.32-.4c0-.15.11-.26.32-.35a.6.6,0,0,0,.17-.07.54.54,0,0,0,.24-.32,2.53,2.53,0,0,0,.07-.72V71.41a9.79,9.79,0,0,0,0-1.37c0-.21-.09-.33-.17-.37a2,2,0,0,0-.33-.12c-.27-.08-.41-.2-.41-.35a.37.37,0,0,1,.12-.26,1.92,1.92,0,0,1,.41-.24c.3-.11.63-.21,1-.3a3.66,3.66,0,0,1,.72-.14.27.27,0,0,1,.25.13.91.91,0,0,1,.08.43v.69l0,1.69Zm-1.94-4.91a.81.81,0,0,1,.31-.64,1.08,1.08,0,0,1,.75-.27,1.05,1.05,0,0,1,.71.24.75.75,0,0,1,.28.6.77.77,0,0,1-.31.62,1.14,1.14,0,0,1-.76.25,1.09,1.09,0,0,1-.7-.22.72.72,0,0,1-.28-.58Z"/></g></g></svg>