<?xml version="1.0" encoding="utf-8"?>
<!-- Generator: Adobe Illustrator 19.2.1, SVG Export Plug-In . SVG Version: 6.00 Build 0)  -->
<svg version="1.1" id="Layer_1" xmlns="http://www.w3.org/2000/svg" xmlns:xlink="http://www.w3.org/1999/xlink" x="0px" y="0px"
	 viewBox="0 0 157 58.7" style="enable-background:new 0 0 157 58.7;" xml:space="preserve">
<style type="text/css">
	.st0{fill:#9F9745;}
	.st1{fill:#046939;}
</style>
<g>
	<g>
		<g>
			<g>
				<path class="st0" d="M79.1,50.8l0.6-1.2c0.2,0.3,0.6,0.5,1.2,0.5s0.9-0.2,0.9-0.6c0-0.5-0.4-0.6-1.1-0.8c-1-0.3-1.6-0.7-1.6-1.9
					c0-1.3,0.9-1.9,2.1-1.9c0.7,0,1.3,0.1,1.7,0.4l-0.6,1.1c-0.3-0.2-0.6-0.4-1.1-0.4c-0.6,0-0.8,0.2-0.8,0.6s0.3,0.5,0.9,0.7
					c1.3,0.3,1.8,0.8,1.8,2c0,1.3-0.8,1.9-2.2,1.9C80.1,51.3,79.5,51.1,79.1,50.8z"/>
				<path class="st0" d="M73.7,45h1.5l1.9,3.8l0,0V45h1.4v6.2H77L75,47.4l0,0v3.9h-1.4V45z"/>
				<path class="st0" d="M85.2,45h1.5l2.1,6.2h-1.5l-0.3-1.1H85l-0.4,1.1h-1.5L85.2,45z M85.3,48.9h1.3l-0.6-2.2l0,0L85.3,48.9z"/>
				<path class="st0" d="M89.1,45h1.5l1.9,3.8l0,0V45H94v6.2h-1.5l-1.9-3.9l0,0v3.9h-1.4V45z"/>
				<g>
					<path class="st0" d="M94.9,51.2v-4.4c0-0.1,0.1-0.3,0.3-0.3l1.1-0.2v4.9H94.9z"/>
					<path class="st0" d="M94.9,45.3c0-0.1,0.1-0.3,0.3-0.3h1.1v0.7c0,0.1-0.1,0.2-0.3,0.3l-1.1,0.2V45.3L94.9,45.3z"/>
				</g>
				<g>
					<path class="st0" d="M71.4,51.2v-4.4c0-0.1,0.1-0.3,0.3-0.3l1.1-0.2v4.9H71.4z"/>
					<path class="st0" d="M71.4,45.3c0-0.1,0.1-0.3,0.3-0.3h1.1v0.7c0,0.1-0.1,0.2-0.3,0.3l-1.1,0.2V45.3z"/>
				</g>
			</g>
			<g>
				<path class="st0" d="M133.7,51.2h-1.6l-2-6.2h1.4l1.4,4.5l0,0l1.3-4.5h1.4L133.7,51.2z"/>
				<path class="st0" d="M137,45h1.4l2,6.2H139l-0.3-1.1h-1.8l-0.3,1.1H135L137,45z M137.1,48.9h1.2l-0.6-2.2l0,0L137.1,48.9z"/>
				<path class="st0" d="M140.8,45h1.4v2.4l1.7-2.4h1.7l-1.9,2.4l2.2,3.8h-1.7l-1.4-2.6l-0.6,0.7v1.9h-1.4V45L140.8,45z"/>
				<path class="st0" d="M146.2,45h3.6v1.3h-2.2v1.3h1.8v1.3h-1.8v2.4h-1.4V45z"/>
				<path class="st0" d="M150.3,51.2h1.4V45h-1c-0.2,0-0.4,0.2-0.4,0.4L150.3,51.2L150.3,51.2z"/>
			</g>
			<g>
				<path class="st0" d="M101.8,48.9v2.3h-1.4v-2.3l-2-3.9h1.7l1.1,2.5l1.1-2.5h1.7L101.8,48.9z"/>
				<path class="st0" d="M105,45h1.5l2.1,6.2h-1.5l-0.3-1.1h-1.9l-0.4,1.1h-1.5L105,45z M105.1,48.9h1.3l-0.6-2.2l0,0L105.1,48.9z"
					/>
				<path class="st0" d="M114.3,45h2.3c1.6,0,2.6,1.1,2.6,3.1c0,2-1,3.1-2.6,3.1h-2.3V45z M115.7,49.8h0.7c1,0,1.5-0.5,1.5-1.8
					c0-1.1-0.5-1.7-1.5-1.7h-0.7V49.8z"/>
				<path class="st0" d="M122.2,45h2l0.9,4.2l0,0L126,45h2v6.2h-1.3v-4.7l0,0l-1.1,4.7h-1.1l-1.1-4.7l0,0v4.7h-1.3V45z"/>
				<path class="st0" d="M111.1,48.9h-0.6v2.3H109V45h2.1c1.5,0,2.2,0.7,2.2,1.9c0,0.8-0.3,1.3-0.8,1.7l1.3,2.6h-1.6L111.1,48.9z
					 M110.5,47.8h0.5c0.6,0,0.8-0.3,0.8-0.8c0-0.6-0.3-0.8-0.8-0.8h-0.5V47.8z"/>
				<path class="st0" d="M119.9,51.2h1.4V45h-1c-0.2,0-0.4,0.2-0.4,0.4L119.9,51.2L119.9,51.2z"/>
			</g>
		</g>
		<g>
			<g>
				<g>
					<path class="st1" d="M108.3,6.5c-0.9,0-1.7,0.7-1.7,1.6v11.1h-7.9c-1,0-1.7,0.6-2.1,1.2l-1.4,2.7V6.5h-8.3
						c-0.9,0-1.6,0.7-1.6,1.6v34h8.3c0.9,0,1.7-0.7,1.7-1.6V28h11.4v14.1h8.3c0.9,0,1.7-0.7,1.7-1.6v-34L108.3,6.5L108.3,6.5z"/>
				</g>
				<g>
					<path class="st1" d="M143.3,6.5c-0.9,0-1.7,0.7-1.7,1.6v11.1h-7.9c-1,0-1.7,0.6-2.1,1.2l-1.4,2.7V6.5h-8.3
						c-0.9,0-1.6,0.7-1.6,1.6v34h8.3c0.9,0,1.7-0.7,1.7-1.6V28h11.4v14.1h8.3c0.9,0,1.7-0.7,1.7-1.6v-34L143.3,6.5L143.3,6.5z"/>
				</g>
				<path class="st1" d="M81.8,40.5c0,0.9-0.7,1.6-1.7,1.6h-8.7V17c0-0.9,0.6-1.4,1.7-1.7l8.7-1V40.5z"/>
				<path class="st1" d="M71.4,8.2c0-0.9,0.7-1.6,1.7-1.6h8.7v4.3c0,0.9-0.6,1.4-1.7,1.7l-8.7,1V8.2z"/>
			</g>
		</g>
	</g>
	<g>
		<g>
			<path class="st0" d="M42,23.4c0,0-1.2,0.1-1.2,1.3c0,0.9,0.7,1.4,1.1,1.5c0.5,0,1.5-0.3,1.5-1.4C43.3,23.4,42,23.4,42,23.4z"/>
			<path class="st0" d="M53.7,21.4c-0.7-4-2.8-7.5-2.9-7.7c-2.9-4.4-7.4-6.4-7.9-6.6c-0.5-0.2-1.9-1.2-2.6-1.4
				c-0.7-0.3-2.6-0.6-2.9-0.5c-0.3,0-2.6,0-3,0c-0.3,0-2,0-2.3,0c-2.2,0.3-4.3,1.1-4.9,1.3s-0.8,0.1-1,0.2c-4.2,1.8-6.7,4.9-6.7,4.9
				s-1.7,2.4-1.8,2.5c-2.6,4.4-2.6,8.4-2.7,9.2c0,0.8,0,2.5,0,2.8c0,0.3,0.1,2.3,0.1,3s0.2,1,0.6,1.4c0.4,0.3,1.2,1,1.2,1
				s0.2-0.2,0.3-0.4c0.1-0.2,0.1-0.6,0.1-0.8c-0.1-0.2,0-0.5,0-0.5l0.3,0l-0.1-0.3c-0.1-0.2,0-0.4,0-0.5s-0.3-0.8-0.4-1.5
				c-0.1-0.8,0-1.1,0.6-1.5c0.6-0.4,1.8-0.4,1.8-0.4s0-0.1,0-0.3c0-0.2-0.2-0.4-0.4-0.5c-0.1,0-0.2,0-0.4-0.1c-0.2-0.1,0-0.3,0-0.3
				c0.2,0,0.2-0.2,0.2-0.2l0-0.4c0,0-0.3,0-0.5-0.1c-0.8-0.4-1-1.8-1-2.2c0-0.4,0.3-1.8,0.4-2.1c0.7-3.5,2.2-5.4,2.7-5.8
				c0.5-0.4,1.1,0,1.4,0c0.3,0.1,0.5,0.1,0.5,0.1s0-0.2,0.3-0.4c0.2-0.2,0.9-0.4,1.1-0.5c0.3-0.1,0.2-0.3,0-0.4
				c-0.1-0.1-0.4-0.4-0.7-0.4c-0.2-0.1-0.2-0.3-0.1-0.4l0.8-0.9c1.3-1.3,2.3-1.7,3-2C27.7,8.3,28.6,8,28.6,8v0.8l-0.4,0.8
				c-0.7,1.7-2.2,3.4-2.2,3.4l-0.8,0c-0.1,0-0.7-0.1-1.2,0.2S23.7,14,23.7,14l0.3,0.2l-0.1,0.2c0,0,0.7,0,1,0.1
				c0.3,0.1,0.6,0.7,0.5,1s-0.3,1.4-0.6,2.6c-0.4,1.3-0.5,2.5-0.5,3.1c0,0.6,0,1-0.1,1.5c-0.2,0.5-0.9,0.7-1.4,0.7
				c-0.6,0-1.5,0-1.9,0c-0.3,0-0.1,0.1-0.1,0.1l0,0.3l0.2,0.4l-0.2,0.4L20.6,25c0.5,0,0.7,0.4,0.7,0.4s0.3,0,0.6,0
				c0.3,0,1.4,0.4,1.8,0.6c0.3,0.3,0.5,0.6,0.5,0.8c0,0.1,0,0.8,0,1c-0.2,2.1,0.4,3,0.7,3.5c0.3,0.5,0.5,1.3,0.5,2.1
				c0.1,0.7-0.4,0.8-1.1,1.3c-0.7,0.5-2.7,1.4-2.7,1.4s-0.4,0-1.3-1c-0.9-1-1.4-2.9-1.5-3.1c0-0.2,0-0.6-0.4-0.3
				c-0.5,0.3-0.3,0.7-0.1,1.1c0.1,0.4,0,0.6-0.1,0.6c-0.1,0-0.7-0.7-0.9-0.9C16.9,32.4,17,32.8,17,33c0.1,1.3,0.9,2.4,1,2.5
				c4,4.7,9.9,7,11.1,7.4c1.1,0.4,1.9,0.4,2.3,0.4h1.7v0l0.7,0.1l0.4-0.2l0.1-0.5c-0.1-0.4-0.4-1.1-0.7-1.9c-0.7-2.1,0.1-5,0.2-5.4
				c0.4-1.5,1.2-3.3,2.6-5.7c1.5-2.5,2.1-4.8,1.5-6.8c-0.3-1.1-0.8-1.8-1.3-2.4c0,0,0,0,0.1,0c0.6,0.3,1.5,0.6,2.9,0.4
				c0.5-0.1,1-0.2,1.5-0.3c3-0.6,5.8-1.2,7.5,3.2c0.3,0.9,0.5,1.9,0.7,3c0.3,1.9,0.8,4.2,2.3,6l0.7-1.4c0.3-0.5,0.3-0.8,0.4-0.9
				c1.1-2.4,1-4.1,0.8-4.4c-0.1-0.3,0.1-0.5,0.3-1C54.2,24.6,53.7,21.6,53.7,21.4z M28,13.5c0.1-0.7,1.2-3.6,3.2-5.9
				c0.2-0.2,0.7-0.6,1.2-0.6C32.9,7,33,7.6,33,7.8c0.1,0.2,0.3,1,0.1,1.3c-0.1,0.3-0.2,0.8-0.3,1.3s0.1,0.7,0.2,1
				c0.1,0.3,0.3,0.7,0.4,0.6c0.2,0,0.4-0.3,0.7-0.4c0.2-0.1,0.7-0.5,0.7-1.1c0-0.6-0.1-0.9-0.1-1.2c-0.1-0.3-0.1-0.6-0.1-1
				c0-0.4,0.1-0.6,0.1-0.6s0-0.3,0.2-0.6s0.6-0.4,0.7-0.3c0.2,0.1,0.8,0.2,1.7,1.7c0.1,0.2,0.7,1.3,1.3,2.8c0.1,0.3,0.3,1.2,0.6,1.7
				c0.3,0.5,0.6,1.2,0.6,1.2s-1.2,0.5-2.5,0.7c-0.3,0-1.3,0.1-1.7-0.1c-0.4-0.3-0.4-0.6-0.4-0.8l-0.1-0.6c0-0.1-0.3-0.9-0.6-1.2
				c-0.4-0.3-0.4-0.1-0.3,0c0.1,0.2,0.2,1.2-0.1,1.2L34,13.3c-0.1-0.1-0.3-0.1-0.6-0.2c-0.2,0-0.3,0.1-0.3,0.3c0,0.2,0,0.9,0,0.9
				s0,0.8-1,0.8c-1,0-1.9-0.4-2.7-0.6c-0.8-0.2-1.3-0.4-1.3-0.4S27.9,14.2,28,13.5z M38.9,9.5c0,0,1.1,1.3,1.5,2.4s0.6,1.4,0.6,1.4
				s-0.6,0.1-1.3-1.4c-0.4-0.7-0.5-1.5-0.6-1.8C39,9.9,38.9,9.5,38.9,9.5z M24.9,31.2c-0.2-0.4-0.3-0.9-0.4-1.3
				c-0.1-0.4-0.3-0.9-0.3-0.9s-0.1-0.5,0.3-0.5c0.4,0,0.4,0.1,0.6,0.4c0.1,0.3,0.3,0.6,0.4,0.6V30l-0.1,0.4c0.1,0.1,0,0.1,0.1,0.4
				c0.1,0.3,0.2,0.6,0.3,0.8c0.1,0.2,0.1,0.5,0.1,0.7c0,0.2-0.1,0.5-0.1,0.8c0,0.3-0.1,0.7-0.1,0.7s-0.1-0.2-0.1-0.5s0-0.7-0.2-0.9
				C25.2,32,25.2,31.6,24.9,31.2z M28.7,40.8c-0.2,0-0.7-0.1-1.3-0.3c-0.6-0.2-1.6-0.8-2.7-1.6c-1.1-0.7-1.8-1.3-1.8-1.3
				s-0.5-0.1-0.1-0.4c0.4-0.3,2.2-1.2,2.5-1.4c0.3-0.1,0.8-0.4,1.4,0.4c0.6,0.8,1.5,2.7,1.8,3.3c0.3,0.6,0.6,1.1,0.6,1.1
				S28.9,40.8,28.7,40.8z M32.4,35.1c-0.8,2.4-0.6,5.5-0.5,6.4c0,0-0.1,0-0.1,0c-0.3,0-1-0.2-1.8-1.9c-0.2-0.4-0.8-1.7-1.3-2.9
				c-0.5-1.2-0.8-1.6-0.8-1.6S27.8,35,28,34.9c0.2-0.1,1.4-0.6,1.6-0.7c0.3-0.1,0.8-0.4,1.1-0.4c0.3,0,1,0,1.3,0
				c0.3,0,0.3-0.1,0.6,0.1c0,0,0.1,0.1,0.2,0.1C32.6,34.4,32.5,34.7,32.4,35.1z M32.8,31.6c-0.4,0-0.8,0.1-1.3,0.2
				c-1,0.1-1.4,0.5-2.1,0.7c-0.7,0.2-1.3,0.6-1.6,0.6h-0.6c0,0-0.1-0.3-0.3-0.7c-0.2-0.4-0.4-1.1-0.7-2c-0.3-0.9-0.5-0.9-0.4-1.4
				c0-0.5,0-0.8,0-1.2c0-0.4,0.1-0.5,0-0.7c-0.1-0.2-0.1-0.4-0.3-0.4l-0.1-0.2l0-0.3c0.1-0.1,0.4-0.3,1.4-0.6c1-0.2,1.6-0.1,2-0.2
				c0.4-0.1,0.9-0.1,1.3-0.1c0.4,0,0.8,0.1,1.5,0.2c0.7,0.1,0.9,0.3,1.3,0.4c0.4,0.1,0.5,0.3,0.4,0.5c0,0.2,0,5.2,0,5.2
				S33.2,31.6,32.8,31.6z M35.7,28.3c0,0-0.2,0.3-0.5,0.9c-0.1-0.5-0.2-1.1-0.2-1.1c0-0.1,0-0.4,0-0.8s0.2-0.6,0.4-1.1
				c0.1-0.4,0.8-0.7,1.1-0.8c0.1,0,0.3-0.1,0.4-0.1C36.5,26.9,35.7,28.3,35.7,28.3z M36.7,23.3c-0.6,0-1.2,0-1.3,0
				c-0.3,0-0.8,0-1.1,0.2c-0.3,0.1-0.6,0.2-0.7,0.2c-0.2,0-0.9-0.2-1.1-0.3c-0.2-0.1-0.5-0.1-0.7-0.1c-0.2,0-0.2,0-0.3,0.1l-0.2,0.2
				c0,0-0.4-0.3-0.6-0.3c-0.3,0.1-1,0-1.3,0.1c-0.3,0.1-1.2,0.1-1.5,0.2c-0.3,0-0.8-0.1-1.4-0.2c-0.5-0.1-0.8-0.1-0.8-0.1l0-0.6
				c0-0.1,0.1-0.1,0.1-0.4c0-0.3,0-0.5-0.1-0.9s-0.1-0.7,0-1c0-0.3,0.2-1,0.5-2c0.3-1,0.5-1.7,0.6-1.9c0.1-0.3,0.1-0.6,0.4-0.5
				c0.3,0,1.8,0.4,2.2,0.5c0.4,0,1.4,0.4,2.2,0.6s1.1,0.6,1.4,0.7c0.3,0.1,0.3,0.1,0.3,0.4c0,0.3-0.1,1-0.2,1.3
				c-0.1,0.3,0.1,1.2,0.1,1.5c0,0.3,0.5,1.7,0.5,1.7s0.3-0.2,0.4-0.6c0.2-0.4,0.2-0.6,0.4-0.5c0.2,0.1,0.6,0.4,0.6,0.4s0-0.1,0-0.3
				c0-0.1,0-0.6,0-0.9C35.6,21.1,36.4,22.1,36.7,23.3z M41.9,19.2c0,0-1.6,0.5-3,0.6c-1,0-2-0.2-2-0.2s-0.7-0.1-1.3,0.1
				c-0.2,0.1-0.4,0.3-0.5,0.4c-0.1-0.4-0.2-1-0.1-1.4c0.1-0.3,0.1-0.5,0.7-1c0.6-0.5,1.1-0.6,1.4-0.7c0.3-0.1,0.9-0.1,2.1-0.4
				c1.1-0.3,1.4-0.5,1.4-0.5s0.2-0.4,0.4,0c0.2,0.2,0.9,1.7,1.3,3.2C42.1,19.1,41.9,19.2,41.9,19.2z M41.6,11.8
				c-0.9-2.4-1.9-3.3-1.9-3.3s0.3-0.3,0.4-0.4c0.2-0.1,0.3-0.1,0.3-0.1s0.6,0.2,2.4,1c1.8,0.8,2.4,1.5,2.6,1.7
				c0.2,0.1,0.1,0.3,0.1,0.3s0.1-0.1,0.1,0.2c0,0.3-0.4,0.7-1,0.9c-0.6,0.3-1.8,0.7-2.1,0.8C42.2,13.1,41.9,12.7,41.6,11.8z
				 M50,23.1c-0.1-0.1-0.1-0.3-0.2-0.4c-0.8-1.8-2-2.6-2-2.6s-1.1-1-2.6-1.2c-0.3,0-0.7,0-1,0l0,0c0-0.1-0.3-1-0.3-1l-0.1-0.3
				c0,0-0.1,0.1-0.2,0.3c0,0,0.2,0.9,0.2,1c-0.4,0-0.7,0.1-1,0.1c0-0.1,0-0.1-0.1-0.1c-0.1-0.3-0.2-0.8-0.2-1s0.1-0.3,0.1-0.4
				l0.1-0.5c0-0.1,0-0.1,0.2-0.1s0.5,0.1,0.5,0.1s0.1-0.4-0.1-0.8c-0.2-0.4-0.3-0.7-0.3-0.7s0-0.1,0.3-0.4s1.4-1.1,1.9-1.4
				c0.5-0.3,0.4-0.3,0.8-0.5c0.4-0.2,0.7-0.6,0.7-0.6s0.8,0.8,1.7,1.8c0.8,1,1.9,2.6,2,2.5c0.1,0,0-0.6,0.2-0.7
				c0.2,0,0.6,0.3,0.8,0.5c0.2,0.2,0.4,0.3,0.4,0.4c0,0.2,0.1,0.4-0.1,0.4c-0.2,0-0.2-0.1-0.3-0.1l-0.3,0L51,17.8l0.1,0.4
				c0,0.1,0.1,0.7,0.2,1.1c0.1,0.4,0.3,1.3,0.3,1.5c0,0.2,0,1,0.1,1.3c0,0.3,0,0.8,0,0.8L51.4,23c-0.2,0.1-0.4,0.3-0.6,0.2
				C50.6,23.2,50.3,23.1,50,23.1C50,23.1,50,23.1,50,23.1z M52.2,26.2c0,0.2-0.2,0.6-0.3,0.8c-0.1,0.6-0.2,1-0.4,1.5l-0.1,0
				c0,0-0.2-0.5-0.6-1.8c-0.1-0.6-0.3-1.4-0.5-2.2c0.2-0.1,0.6-0.2,0.8-0.2c0.9-0.1,0.9-0.4,0.9-0.4s0.1,0.3,0,0.7
				c-0.1,0.4-0.1,0.9,0,1.1C52.2,25.8,52.2,26,52.2,26.2z"/>
		</g>
		<g>
			<path class="st1" d="M24.2,46.8c0,0-1.5-1-2.8-2.9c-0.8-1.3-1.4-3.2-2.3-4.3c-1.5-1.7-3.1-2.4-3.1-2.4s0.6,1.3,1.3,3.1
				c0.4,1,0.7,2.5,1,3.3c0.4,1,0.9,1.9,0.9,1.9s-2,0-4.5-0.6c-2.4-0.6-5.4-2.2-5.4-2.2s1.4,3.6,6.2,4.8C19,48.4,24.2,46.8,24.2,46.8
				z"/>
			<path class="st1" d="M17.1,43.9c0,0-0.8-1.5-1.4-3.7c-0.4-1.5-0.5-3.7-1-5c-0.7-1.9-1.7-2.8-1.7-2.8s0.2,1.3,0.2,3.3
				c0,0.7-0.1,1.7-0.1,2.5c0,1.1,0.4,2.4,0.4,2.4s-0.6-0.5-1.6-1.1s-2.4-1.3-3.4-2.1c-1.8-1.3-3.1-2.9-3.1-2.9s0.7,4,3.9,6.5
				C13.2,44,17.1,43.9,17.1,43.9z"/>
			<path class="st1" d="M11.4,37.9c0,0,0-1.2,0.2-2.9c0.2-1.3,0.6-2.9,0.6-4.3c0-2.8-0.9-4.8-0.9-4.8s-0.1,1.4-0.6,3.3
				c-0.2,0.7-0.6,2.1-0.7,2.7c-0.2,0.8-0.2,1.8-0.2,1.8S9.2,32.9,8.2,32c-0.7-0.6-1.7-1.7-2.2-2.3c-1.6-1.9-2.2-3-2.2-3
				s0,3.1,1.8,5.8C7.6,35.4,11.4,37.9,11.4,37.9z"/>
			<path class="st1" d="M7.4,29.2c0.9,1.1,1.3,1.8,1.3,1.8s0.3-1.6,1-3.5c0.5-1.3,1.3-2.8,1.7-4.1c0.5-1.9,0.4-3.5,0.4-3.5
				s-1.4,2.2-2.5,4.1C8.4,25.2,8,26.9,8,26.9s-0.6-1.6-1.4-3.1c-0.4-0.8-1.1-1.7-1.4-2.4C4.6,20.2,4.5,19,4.5,19s-1.1,2.8-0.3,5.2
				C4.9,26.1,6.4,27.9,7.4,29.2z"/>
			<path class="st1" d="M7.8,23.5c0,0,0.6-1.1,1.7-2.5c0.7-0.8,1.7-1.8,2.2-2.7c1.2-2,1.5-3.8,1.5-3.8s-0.5,0.7-1.5,1.5
				c-0.6,0.5-1.4,1-2,1.5c-0.9,1-1.5,2.1-1.5,2.1s-0.6-1.8-0.7-3.5c-0.2-1.9,0-3.8,0-3.8s-1.9,2-1.8,4.7c0,1.4,0.8,3.4,1.4,4.6
				C7.6,22.8,7.8,23.5,7.8,23.5z"/>
			<path class="st1" d="M10.6,15.6c1-0.8,2.4-1.8,3.3-2.8c1.3-1.5,1.8-3.4,1.8-3.4s-1.3,1.3-2.6,2.2c-1.1,0.8-2.5,1.3-2.5,1.3
				s0.1-0.6,0.1-1.7c0-0.6,0.2-2.5,0.3-3.1c0.4-1.9,1.3-2.8,1.3-2.8s-2.7,2.1-3.5,4.8c-0.9,3.2,0.1,7.1,0.1,7.1S9.5,16.5,10.6,15.6z
				"/>
			<path class="st1" d="M14.9,8.7c0.5-0.6,1.2-2.2,1.6-2.9c0.8-1.3,1.2-1.6,1.2-1.6S15.1,5,13.6,6.6s-1.8,4.1-1.8,4.1
				S13.6,10.2,14.9,8.7z"/>
			<path class="st1" d="M49.2,48.9c-2.4-0.1-4.9-0.6-7.8-1.4c-0.4-0.1-3.8-1-7.2-0.2c-3.4-0.8-6.8,0.1-7.2,0.2
				c-2.9,0.8-5.4,1.3-7.8,1.4c-3.8,0.2-5.8-1.1-5.8-1.1s2.1,2.8,5.4,3.3c3,0.5,7.4-1.3,7.4-1.3s2.7-1.4,5.5-1.6
				c-3.2,1.7-5.9,4.9-5.9,4.9l1.1,0.8c0,0,3.2-4.3,7.4-5.5c4.2,1.2,7.4,5.5,7.4,5.5l1.1-0.8c0,0-2.7-3.2-5.9-4.9
				c2.7,0.3,5.5,1.6,5.5,1.6s4.3,1.8,7.4,1.3c3.4-0.6,5.4-3.3,5.4-3.3S52.9,49.1,49.2,48.9z"/>
			<path class="st1" d="M49,45.5c0,0,0.5-0.9,0.9-1.9c0.3-0.8,0.7-2.4,1-3.3c0.7-1.9,1.3-3.1,1.3-3.1s-1.6,0.7-3.1,2.4
				c-1,1.1-1.5,3.1-2.3,4.3c-1.3,1.9-2.8,2.9-2.8,2.9s5.2,1.5,8.6,0.7c4.8-1.3,6.2-4.8,6.2-4.8S56,44.4,53.5,45
				C51.1,45.6,49,45.5,49,45.5z"/>
			<path class="st1" d="M59.9,37.4c-1,0.7-2.4,1.4-3.4,2.1c-1,0.6-1.6,1.1-1.6,1.1s0.4-1.3,0.4-2.4c0-0.8-0.1-1.8-0.1-2.5
				c0-2,0.2-3.3,0.2-3.3s-1,0.8-1.7,2.8c-0.5,1.4-0.6,3.6-1,5c-0.6,2.2-1.4,3.7-1.4,3.7s3.9,0.1,7.8-2.9c3.2-2.5,3.9-6.5,3.9-6.5
				S61.7,36.1,59.9,37.4z"/>
			<path class="st1" d="M62.8,32.4c1.8-2.6,1.8-5.8,1.8-5.8s-0.6,1.1-2.2,3c-0.6,0.7-1.6,1.7-2.2,2.3c-0.9,0.9-1.5,1.8-1.5,1.8
				s0-0.9-0.2-1.8c-0.1-0.6-0.6-2-0.7-2.7c-0.4-1.9-0.6-3.3-0.6-3.3s-0.9,2-0.9,4.8c0,1.4,0.4,3,0.6,4.3c0.2,1.7,0.2,2.9,0.2,2.9
				S60.7,35.4,62.8,32.4z"/>
			<path class="st1" d="M60.4,26.9c0,0-0.4-1.7-1.2-3.1c-1.1-1.9-2.5-4.1-2.5-4.1s-0.2,1.6,0.4,3.5c0.4,1.3,1.2,2.8,1.7,4.1
				c0.7,1.9,1,3.5,1,3.5s0.4-0.7,1.3-1.8c1-1.3,2.5-3.1,3.2-4.9c0.8-2.5-0.3-5.2-0.3-5.2s-0.1,1.2-0.7,2.4c-0.3,0.8-1,1.7-1.4,2.4
				C61,25.4,60.4,26.9,60.4,26.9z"/>
			<path class="st1" d="M56.6,16c-1-0.8-1.5-1.5-1.5-1.5s0.3,1.8,1.5,3.8c0.6,0.9,1.5,1.8,2.2,2.7c1.1,1.4,1.7,2.5,1.7,2.5
				s0.3-0.7,0.8-1.9c0.5-1.1,1.3-3.2,1.4-4.6c0.1-2.7-1.8-4.7-1.8-4.7s0.2,1.8,0,3.8c-0.1,1.7-0.7,3.5-0.7,3.5s-0.6-1.1-1.5-2.1
				C58,17,57.1,16.5,56.6,16z"/>
			<path class="st1" d="M57.6,11.2c0.1,1.1,0.1,1.7,0.1,1.7s-1.3-0.5-2.5-1.3c-1.4-1-2.6-2.2-2.6-2.2s0.5,1.9,1.8,3.4
				c0.9,1,2.4,2,3.3,2.8c1.1,0.9,1.7,1.6,1.7,1.6s1-3.9,0.1-7.1c-0.8-2.7-3.5-4.8-3.5-4.8s0.8,0.9,1.3,2.8
				C57.5,8.7,57.6,10.6,57.6,11.2z"/>
			<path class="st1" d="M51.9,5.9c0.4,0.6,1.1,2.3,1.6,2.9c1.3,1.5,3.1,2.1,3.1,2.1s-0.3-2.5-1.8-4.1c-1.5-1.6-4.1-2.4-4.1-2.4
				S51,4.5,51.9,5.9z"/>
		</g>
	</g>
</g>
</svg>
