<svg xmlns="http://www.w3.org/2000/svg" viewBox="0 0 179.51 54.24"><defs><style>.cls-1{fill:#e50019;}.cls-2{fill:#fff;stroke:#000;stroke-miterlimit:10;}</style></defs><g id="Layer_2" data-name="Layer 2"><g id="Layer_1-2" data-name="Layer 1"><g id="Group_2" data-name="Group 2"><rect id="Rectangle_4" data-name="Rectangle 4" class="cls-1" y="0.5" width="3.89" height="52.92"/><g id="Group_1" data-name="Group 1"><path id="Path_1" data-name="Path 1" class="cls-2" d="M41.37,43.2a7.57,7.57,0,0,0-1-4.19,3,3,0,0,0-2.66-1.46q-3.59,0-3.58,5.59a7.92,7.92,0,0,0,.94,4.21,3.06,3.06,0,0,0,2.69,1.44q3.57,0,3.58-5.59m5.88-.06c0,3.33-.88,5.94-2.64,7.81a8.94,8.94,0,0,1-6.87,2.78A8.89,8.89,0,0,1,30.91,51q-2.62-2.8-2.63-7.81c0-3.34.88-6,2.66-7.85a9.91,9.91,0,0,1,13.67,0c1.76,1.88,2.64,4.48,2.64,7.82"/><path id="Path_2" data-name="Path 2" class="cls-2" d="M66.35,53.41H59.61l-4.27-8.72-2.11,2.54v6.18h-5.8V32.91h5.8v2.4q0,2.82-.09,5.07,1.84-2.79,4-5.39l1.65-2.08h6.91l-6.18,7.23Z"/><path id="Path_3" data-name="Path 3" class="cls-2" d="M83,37.87H77.25V53.41H71.56V37.87H65.83V32.92H83Z"/><path id="Path_4" data-name="Path 4" class="cls-2" d="M95.86,43.2a7.56,7.56,0,0,0-1-4.19,3,3,0,0,0-2.67-1.46q-3.57,0-3.57,5.59a7.74,7.74,0,0,0,.94,4.21,3.06,3.06,0,0,0,2.69,1.44q3.57,0,3.57-5.59m5.89-.06c0,3.33-.88,5.94-2.64,7.81a9,9,0,0,1-6.88,2.78A8.86,8.86,0,0,1,85.41,51q-2.64-2.8-2.63-7.81c0-3.34.88-6,2.66-7.85a9.9,9.9,0,0,1,13.67,0c1.76,1.88,2.63,4.48,2.64,7.82"/><path id="Path_5" data-name="Path 5" class="cls-2" d="M113.43,39.74c0-1.46-.83-2.2-2.49-2.19h-3.43V42h3.34q2.58,0,2.58-2.28m6.06,13.67h-6.36l-3.34-6.9h-2.28v6.9h-5.59V32.91h9.17q8,0,8,6.68a6,6,0,0,1-3.69,6Z"/><path id="Path_6" data-name="Path 6" class="cls-2" d="M134.48,53.41H119.67V32.91h5.74V48.47h9.07Z"/><path id="Path_7" data-name="Path 7" class="cls-2" d="M146.64,45.3,146.25,44q-1-3.69-1.31-5.13-.27,1.44-1.32,5.13l-.38,1.35Zm8.63,8.11h-6.14L148,49.81h-6.14l-1.12,3.6h-6.09l7.44-20.5h5.74Z"/><path id="Path_8" data-name="Path 8" class="cls-2" d="M167,39.74c0-1.46-.83-2.2-2.48-2.19h-3.43V42h3.34c1.72,0,2.57-.76,2.57-2.28M173,53.41h-6.35l-3.34-6.9h-2.28v6.9h-5.6V32.91h9.17q8,0,8,6.68a6,6,0,0,1-3.69,6Z"/><rect id="Rectangle_5" data-name="Rectangle 5" class="cls-2" x="173.2" y="32.92" width="5.8" height="20.5"/><path id="Path_9" data-name="Path 9" class="cls-2" d="M22.27,43.14A6.2,6.2,0,0,0,21.19,39a4.53,4.53,0,0,0-3.66-1.26H16.12V48.55h1.23a5.06,5.06,0,0,0,3.8-1.2c.74-.8,1.11-2.21,1.11-4.22M28.09,43q0,5.63-2.81,8.08-2.61,2.3-8.26,2.29H10.38V32.91h7.18c3.43,0,6,.72,7.69,2.17q2.84,2.46,2.85,8"/></g><path id="Path_10" data-name="Path 10" class="cls-2" d="M75.19,9.39c0-1.9-1.08-2.86-3.24-2.86H67.49v5.84h4.35q3.34,0,3.35-3m7.9,17.82H74.81l-4.35-9h-3v9H60.21V.51H72.15q10.41,0,10.41,8.7,0,5.64-4.81,7.82Z"/><path id="Path_11" data-name="Path 11" class="cls-2" d="M37.6.5,27.72,17.25v10H20.24V17.37L10.36.5H18.9S23.5,9,24,10.59C24.53,9,29.13.5,29.13.5Z"/><path id="Path_12" data-name="Path 12" class="cls-2" d="M107.47.5,97.59,17.25v10H90.11V17.37L80.23.5h8.54S93.37,9,93.88,10.59C94.4,9,99,.5,99,.5Z"/><path id="Path_13" data-name="Path 13" class="cls-2" d="M154.27,27.21h-21.9v-5.3l7.82-9.54c1-1.24,2.77-3.23,5.26-5.95q-3.09.11-7.93.11h-4.39v-6h21.06v5.3l-7.82,9.53c-1,1.25-2.77,3.23-5.27,5.95,2.06-.07,4.7-.11,7.94-.11h5.23Z"/><rect id="Rectangle_6" data-name="Rectangle 6" class="cls-1" x="117.97" y="0.5" width="3.89" height="11.69"/><path id="Path_14" data-name="Path 14" class="cls-2" d="M131.63,15.8q0,6.07-3.36,9.08-3,2.75-8.42,2.75t-8.33-2.75q-3.3-3-3.32-9.08V.5h7.56V15.8c0,3.54,1.4,5.3,4.2,5.3s4.12-1.77,4.12-5.3V.5h7.55Z"/><rect id="Rectangle_7" data-name="Rectangle 7" class="cls-1" x="165.34" y="0.5" width="3.89" height="11.69"/><path id="Path_15" data-name="Path 15" class="cls-2" d="M179,15.8q0,6.07-3.36,9.08-3,2.75-8.43,2.75t-8.31-2.75q-3.33-3-3.32-9.08V.5h7.55V15.8c0,3.54,1.4,5.3,4.2,5.3s4.12-1.77,4.12-5.3V.5H179Z"/><path id="Path_16" data-name="Path 16" class="cls-2" d="M58.71,21H45.6V16.41h7.9V10.27H45.6V6.72H58.71V.5H38.28V27.2H58.71Z"/></g></g></g></svg>