<svg xmlns="http://www.w3.org/2000/svg" viewBox="0 0 277.65 245.82"><defs><style>.cls-1{fill:#e04646;fill-rule:evenodd;}</style></defs><g id="Layer_2" data-name="Layer 2"><g id="Layer_1-2" data-name="Layer 1"><path class="cls-1" d="M7,127.57H48.12a7,7,0,0,1,7,7v84a7,7,0,0,1-7,7H7a7,7,0,0,1-7-7v-84A7,7,0,0,1,7,127.57Zm57.2,89.81V135.54h43.71c15.64,2.8,31.27,11.3,46.88,21.12h28.64c12.95.77,19.75,13.92,7.16,22.59-10.05,7.37-23.29,6.94-36.86,5.74-9.38-.47-9.78,12.11,0,12.15,3.39.27,7.07-.52,10.3-.54,16.94,0,30.9-3.25,39.44-16.62l4.36-10.19,42.58-21.13c21.33-7,36.46,15.3,20.76,30.8a559,559,0,0,1-94.88,55.82c-23.49,14.3-47,13.8-70.5,0l-41.57-17.9Zm75.86-200.1a2.5,2.5,0,0,0-.88-.47,1.46,1.46,0,0,0-.72,0,2.51,2.51,0,0,0-1.65.85l-5.72,6.78a3.47,3.47,0,0,1-4.29.84c-.77-.41-1.58-.79-2.4-1.13s-1.78-.7-2.64-1-1.74-.54-2.75-.83-1.88-.52-2.76-.73a3.47,3.47,0,0,1-2.62-3.25L112.77,9a3,3,0,0,0-.27-.94,2.57,2.57,0,0,0-.52-.66,1.52,1.52,0,0,0-.72-.38,2.09,2.09,0,0,0-.93,0l-12,1.17a3.22,3.22,0,0,0-.93.27,2.76,2.76,0,0,0-.77.63,2.74,2.74,0,0,0-.41.75h0a2.36,2.36,0,0,0,0,.75l.84,8.78a3.5,3.5,0,0,1-2.53,3.69c-.72.24-1.54.54-2.46.92s-1.72.77-2.44,1.15H89.5c-.77.41-1.58.84-2.26,1.29H87c-.77.45-1.52.93-2.26,1.4a3.48,3.48,0,0,1-4.11-.18l-7.82-6.05a2.7,2.7,0,0,0-.79-.45,1.56,1.56,0,0,0-.68,0,2.74,2.74,0,0,0-.92.29H70.3a2.77,2.77,0,0,0-.56.52l-7.57,9.19a2.85,2.85,0,0,0-.52.93,1.75,1.75,0,0,0,0,.72V33a2.07,2.07,0,0,0,.22.77v.11a2.8,2.8,0,0,0,.55.59l6.77,5.71A3.43,3.43,0,0,1,70,44.48a23.64,23.64,0,0,0-1.11,2.26q-.56,1.29-1,2.64c-.27.84-.57,1.74-.86,2.76s-.52,1.89-.72,2.75a3.45,3.45,0,0,1-3.1,2.8l-9.33.86a3,3,0,0,0-.92.27,2.42,2.42,0,0,0-.68.55,1.79,1.79,0,0,0-.38.72,2,2,0,0,0,0,.9l1.17,12a2.65,2.65,0,0,0,.27,1,2.5,2.5,0,0,0,.61.76,3,3,0,0,0,.75.41,2.32,2.32,0,0,0,.83,0l8.79-.83a3.45,3.45,0,0,1,3.55,2.53c.24.72.56,1.55,1,2.46S69.6,81,70,81.73l.16.32c.36.7.76,1.46,1.22,2.26l1.51,2.48a3.51,3.51,0,0,1-.23,4.07l-6.25,7.7a3,3,0,0,0-.41.72,1.83,1.83,0,0,0,0,.66,2.65,2.65,0,0,0,.27,1,2.34,2.34,0,0,0,.59.7c3.11,2.59,6.32,5.15,9.42,7.77a2.28,2.28,0,0,0,.68.34,2,2,0,0,0,.85,0h0a3.45,3.45,0,0,0,1-.27h.11a7.16,7.16,0,0,0,.61-.48l5.65-6.78a3.44,3.44,0,0,1,4.31-.85c.78.41,1.58.79,2.4,1.13s1.76.7,2.64,1,1.72.56,2.76.86,1.87.52,2.75.72a3.45,3.45,0,0,1,2.69,3.25l.86,9.2a2.48,2.48,0,0,0,.29.92,2.16,2.16,0,0,0,.52.68,2.44,2.44,0,0,0,.73.39,2.84,2.84,0,0,0,.92,0l12-1.18a2.81,2.81,0,0,0,1-.27h0a2.25,2.25,0,0,0,1.19-1.38,1.59,1.59,0,0,0,0-.81l-.81-8.81a3.46,3.46,0,0,1,2.26-3.62c.88-.29,1.76-.63,2.62-1h.27c.72-.32,1.45-.68,2.26-1.08h.13c.86-.43,1.7-.89,2.44-1.34l2.51-1.51a3.43,3.43,0,0,1,4.05.25l7.63,6.23a3,3,0,0,0,.75.41h0a1.46,1.46,0,0,0,.72,0,2.34,2.34,0,0,0,.93-.25,2.77,2.77,0,0,0,.67-.61c2.6-3.12,5.15-6.32,7.77-9.42a1.84,1.84,0,0,0,.34-.65,2.48,2.48,0,0,0,0-.86h0a3.45,3.45,0,0,0-.27-1,2.59,2.59,0,0,0-.56-.72l-6.78-5.51a3.44,3.44,0,0,1-.88-4.34c.42-.78.79-1.58,1.13-2.39s.72-1.81,1-2.62.55-1.77.84-2.78.52-1.86.72-2.76a3.48,3.48,0,0,1,3.32-2.69l9.4-1a3.13,3.13,0,0,0,.95-.27,3.3,3.3,0,0,0,.65-.52,2.52,2.52,0,0,0,.39-.72h0a2.48,2.48,0,0,0,0-.86l-1.18-12a3,3,0,0,0-.27-.92v-.14a2.59,2.59,0,0,0-.56-.63,2.5,2.5,0,0,0-.75-.41h0a2.3,2.3,0,0,0-.74,0l-8.88.64a3.52,3.52,0,0,1-3.62-2.26c-.29-.84-.61-1.72-1-2.62s-.79-1.86-1.18-2.6v-.16a25,25,0,0,0-1.26-2.26c-.45-.77-1-1.53-1.49-2.26a3.48,3.48,0,0,1,.2-4.18L150.09,28a2.54,2.54,0,0,0,.45-.8,1.43,1.43,0,0,0,0-.65,2.91,2.91,0,0,0-.29-.95v-.16a2.45,2.45,0,0,0-.48-.54l-8.47-7A3.24,3.24,0,0,1,140.06,17.28Zm93.48,55.57a3.51,3.51,0,0,0-2.6-.81,3.63,3.63,0,0,0-2.39,1.29l-3.46,4.18a23.75,23.75,0,0,0-3.41-1.45c-1.22-.38-2.26-.72-3.57-1l-.54-5.83a3.54,3.54,0,0,0-1.25-2.39,3.29,3.29,0,0,0-2.57-.75l-7.37.73A3.63,3.63,0,0,0,204.13,68a3.41,3.41,0,0,0-.82,2.6l.5,5.35a21.91,21.91,0,0,0-3.46,1.47,26.34,26.34,0,0,0-3.16,1.85l-4.65-3.75A3.24,3.24,0,0,0,190,74.7a3.66,3.66,0,0,0-2.4,1.31l-4.52,5.63a3.49,3.49,0,0,0,.41,4.93l.07.06,3.93,3.46a20.79,20.79,0,0,0-1.42,3.41,32.85,32.85,0,0,0-1,3.57l-5.83.54a3.66,3.66,0,0,0-2.4,1.24,3.31,3.31,0,0,0-.61,2.6l.73,7.34a3.55,3.55,0,0,0,1.24,2.38,3.34,3.34,0,0,0,2.57.81l5.36-.5a22.76,22.76,0,0,0,1.4,3.44,37.23,37.23,0,0,0,1.85,3.25l-3.75,4.52a3.19,3.19,0,0,0-.81,2.53,3.6,3.6,0,0,0,1.29,2.26l5.71,4.9a3.36,3.36,0,0,0,2.6.74,3.75,3.75,0,0,0,2.44-1.22l3.48-4.24a20.87,20.87,0,0,0,3.41,1.44,31.59,31.59,0,0,0,3.57,1l.54,5.85a3.63,3.63,0,0,0,1.24,2.37,3.37,3.37,0,0,0,2.6.77l7.34-.72a3.65,3.65,0,0,0,2.37-1.25,3.4,3.4,0,0,0,.82-2.59l-.52-5.36a19.77,19.77,0,0,0,3.45-1.47,31.29,31.29,0,0,0,3.24-1.83l4.51,3.75a3.43,3.43,0,0,0,2.6.82,3.49,3.49,0,0,0,2.4-1.29l4.69-5.69a3.46,3.46,0,0,0,.77-2.6,3.67,3.67,0,0,0-1.24-2.44L237.85,115a20.52,20.52,0,0,0,1.61-3.42,33.24,33.24,0,0,0,1-3.54l5.85-.54a3.52,3.52,0,0,0,2.26-1.25,3.35,3.35,0,0,0,.77-2.59l-.72-7.35a3.7,3.7,0,0,0-1.24-2.26,3.44,3.44,0,0,0-2.6-.83l-5.36.52A25.61,25.61,0,0,0,238,90.29a19.26,19.26,0,0,0-1.86-3.16l3.78-4.65A3.3,3.3,0,0,0,240.7,80a3.67,3.67,0,0,0-1.29-2.4l-5.65-4.63h-.18ZM211.22,88.28a15.18,15.18,0,0,1,5.69.57,14.78,14.78,0,0,1,4.86,2.62,14.31,14.31,0,0,1,3.5,4.27,13.53,13.53,0,0,1,1.63,5.44,15.18,15.18,0,0,1-.57,5.69,13.9,13.9,0,0,1-12.22,10,14.09,14.09,0,0,1-14.05-7.46,13.3,13.3,0,0,1-1.74-5.49,14.2,14.2,0,0,1,7.45-14,13.4,13.4,0,0,1,5.45-1.62Zm-69.9-78.12a10.23,10.23,0,0,1,2.26,1,3.3,3.3,0,0,1,1.36.68l9.1,7.57a9.29,9.29,0,0,1,2.13,2.46l.18.29a9.67,9.67,0,0,1,1.08,3.44,8.38,8.38,0,0,1-.38,3.75,9.45,9.45,0,0,1-1.61,2.91l-4.65,5.78.29.48a29.89,29.89,0,0,1,1.61,3.07c.54,1,1,2,1.35,2.91l.18.46,6.1-.59a8.76,8.76,0,0,1,3.53.31H164a9.63,9.63,0,0,1,2.89,1.56l.32.27a9.69,9.69,0,0,1,2,2.49l.18.29a9.48,9.48,0,0,1,1,3.28c0,3,.77,8.9,1.17,12.06a8.92,8.92,0,0,1-.25,3.41v.21a9,9,0,0,1-1.69,3.18h0a9,9,0,0,1-2.69,2.26,10,10,0,0,1-3.43,1l-7.19.63-.18.66c-.24.9-.56,1.92-1,3.07s-.74,2.26-1.13,3.09l-.18.39,4.95,4a9.29,9.29,0,0,1,2.26,2.91,9.59,9.59,0,0,1,.72,3.12v.11a9,9,0,0,1-.29,3.62A9.49,9.49,0,0,1,160,99.4l-7.88,9.53a9.17,9.17,0,0,1-2.73,2.26,9,9,0,0,1-3.46,1.08,9.27,9.27,0,0,1-3.59-.29h-.18a9.72,9.72,0,0,1-2.85-1.54l-5.85-4.76-.59.33c-1,.59-2,1.11-2.89,1.56s-1.71.86-2.64,1.27l-.81.27.63,6.1a8.75,8.75,0,0,1-.39,3.73,9.77,9.77,0,0,1-1.71,3l-.14.13a10,10,0,0,1-2.55,2.06h-.23a9.77,9.77,0,0,1-3.25,1c-3,0-8.9.79-12.06,1.2a9.61,9.61,0,0,1-3.62-.3,9,9,0,0,1-3.18-1.71h-.12a10.1,10.1,0,0,1-2.14-2.72,9.17,9.17,0,0,1-1-3.43L96.05,111l-.63-.18-3.07-1a29.23,29.23,0,0,1-3.1-1.15l-.42-.19-4.07,4.95a9.11,9.11,0,0,1-2.64,2.06l-.25.16a10.55,10.55,0,0,1-3.14.9h-.12a9.08,9.08,0,0,1-3.63-.29,9.44,9.44,0,0,1-3-1.54l-9.55-7.88a9.43,9.43,0,0,1-3.35-6.15,8.19,8.19,0,0,1,.39-3.61A8.93,8.93,0,0,1,61,94.27l4.77-5.85-.25-.57c-.5-.83-1-1.74-1.44-2.69h0a32.55,32.55,0,0,1-1.47-3l-.21-.52-6,.57a8.74,8.74,0,0,1-3.7-.36,9.1,9.1,0,0,1-2.9-1.58L49.4,80a9.81,9.81,0,0,1-2.25-2.83,9.49,9.49,0,0,1-1-3.25c0-3-.79-8.83-1.19-12a9.21,9.21,0,0,1,.2-3.73,9,9,0,0,1,1.72-3.18h0a9.81,9.81,0,0,1,2.71-2.26,9.39,9.39,0,0,1,3.43-1L60.2,51l.18-.66c.27-.88.59-1.92,1-3.05s.76-2.26,1.15-3.12l.18-.42-4.63-3.94a9.46,9.46,0,0,1-2.26-2.5l-.14-.23a9,9,0,0,1-.95-3.21V33.7a9.1,9.1,0,0,1,.37-3.63,9.33,9.33,0,0,1,1.76-3.19l7.56-9.24a9,9,0,0,1,2.49-2.1l.27-.18a8.88,8.88,0,0,1,3.43-1.08,8.1,8.1,0,0,1,3.69.38,9.63,9.63,0,0,1,2.91,1.6L83,20.94l.58-.45c.93-.54,1.88-1,2.83-1.52s2-1,2.91-1.4l.54-.2-.61-6.08a8.74,8.74,0,0,1,.32-3.52V7.59A9.52,9.52,0,0,1,91.13,4.7l.34-.18a9.63,9.63,0,0,1,2.78-2.26,9.24,9.24,0,0,1,3.27-1c3,0,8.9-.77,12.07-1.17a9,9,0,0,1,3.61.29,9.09,9.09,0,0,1,3.19,1.69h0a10,10,0,0,1,2.25,2.69,9.94,9.94,0,0,1,1.09,3.53l.63,7.18.66.18c.88.25,1.92.57,3.07.95l3.09,1.15.46.2,3.9-4.72a9.68,9.68,0,0,1,6.26-3.38,8.48,8.48,0,0,1,3.64.33Zm-35.8,26.23a30.33,30.33,0,0,1,5.22,0,27.65,27.65,0,0,1,5.33,1.06h0a28.72,28.72,0,0,1,4.79,2l.2.12a28.36,28.36,0,0,1,4.07,2.73h0a28.42,28.42,0,0,1,6.53,8,23.88,23.88,0,0,1,2.07,5,24.7,24.7,0,0,1,1,5.33h0a28.12,28.12,0,0,1,0,5.19,25.61,25.61,0,0,1-1,5.34v.22a27.72,27.72,0,0,1-1.94,4.52,29.72,29.72,0,0,1-2.83,4.29l-.22.25a27.66,27.66,0,0,1-7.84,6.35,26.38,26.38,0,0,1-5,2.08,28.23,28.23,0,0,1-5.31,1,31.39,31.39,0,0,1-5.31,0,26.91,26.91,0,0,1-5.33-1.06h0a29.38,29.38,0,0,1-4.77-2,31.31,31.31,0,0,1-4.29-2.85h0a26.57,26.57,0,0,1-3.61-3.66,29.55,29.55,0,0,1-2.94-4.34,25.41,25.41,0,0,1-2.06-5,24.69,24.69,0,0,1-1-5.33h0a28.12,28.12,0,0,1,0-5.19,24.77,24.77,0,0,1,1-5.33h0a26.82,26.82,0,0,1,2-4.79l.11-.21A26.54,26.54,0,0,1,87.18,46l.18-.22a26.16,26.16,0,0,1,3.52-3.46,30.16,30.16,0,0,1,4.34-2.91,25.31,25.31,0,0,1,5-2.08,28.29,28.29,0,0,1,5.33-1ZM110,43.33a20.77,20.77,0,0,0-4,0h0a19.82,19.82,0,0,0-3.91.72,18.49,18.49,0,0,0-3.59,1.49A23.4,23.4,0,0,0,95.2,47.8a20.85,20.85,0,0,0-2.58,2.48h0a21.27,21.27,0,0,0-2,3v.18a20.54,20.54,0,0,0-1.49,3.6,19.87,19.87,0,0,0-1,4,24.53,24.53,0,0,0,0,4h0a18.81,18.81,0,0,0,.75,3.93,17.43,17.43,0,0,0,1.51,3.66A21.89,21.89,0,0,0,92.62,76a19,19,0,0,0,2.67,2.71,21.86,21.86,0,0,0,3.18,2.1,22.49,22.49,0,0,0,3.62,1.51,18,18,0,0,0,3.9.77,23.28,23.28,0,0,0,4.09,0,20.15,20.15,0,0,0,3.93-.72,18.91,18.91,0,0,0,3.46-1.49,21.47,21.47,0,0,0,5.9-4.79h0a21,21,0,0,0,2.25-3.26,23.6,23.6,0,0,0,1.47-3.43v-.13a19.66,19.66,0,0,0,.79-3.94,22.49,22.49,0,0,0,0-4h0a18.17,18.17,0,0,0-.74-3.93,18.76,18.76,0,0,0-1.49-3.59,21.18,21.18,0,0,0-2.26-3.3,19,19,0,0,0-2.67-2.71,22.42,22.42,0,0,0-3-2h-.18a22.49,22.49,0,0,0-3.62-1.51,17.67,17.67,0,0,0-3.88-.77ZM36.71,193.94a8,8,0,1,1-8,8.06v0A8,8,0,0,1,36.71,193.94Z"/></g></g></svg>